<?xml version="1.0" encoding="UTF-8"?>
<svg version="1.1" xmlns="http://www.w3.org/2000/svg" width="160" height="160">
<path d="M0 0 C4.15562937 2.72004832 6.17342793 4.86993967 7.2734375 9.78125 C7.47248124 11.15193755 7.65080421 12.52662547 7.7734375 13.90625 C8.3921875 13.74125 9.0109375 13.57625 9.6484375 13.40625 C19.04517248 11.9027724 26.41438802 13.11758818 34.7734375 17.90625 C40.52017408 22.65944469 43.89454042 29.52351454 44.7734375 36.90625 C45.11971031 42.03541604 44.67252158 46.78719909 43.7734375 51.84375 C40.94084211 69.37299972 43.50586678 82.73994521 51.31079102 98.5690918 C56.36765536 108.91799073 58.44710941 122.06962543 54.640625 133.2265625 C51.94046725 137.96244128 48.88876807 141.78290524 43.7734375 143.90625 C34.5302909 144.7846767 34.5302909 144.7846767 30.7734375 142.90625 C30.7528125 143.504375 30.7321875 144.1025 30.7109375 144.71875 C29.7734375 146.90625 29.7734375 146.90625 26.4609375 148.59375 C9.65681255 154.57487922 -10.74985841 151.86396168 -27.2265625 145.90625 C-28.35400879 145.50374023 -29.48145508 145.10123047 -30.64306641 144.68652344 C-34.43403906 143.31313374 -38.20826576 141.9028113 -41.9765625 140.46875 C-43.17982178 140.01459717 -44.38308105 139.56044434 -45.62280273 139.0925293 C-59.92127292 133.43664518 -59.92127292 133.43664518 -63.57421875 126.2578125 C-64.7407822 120.26433082 -65.35628196 114.20971806 -65.99414062 108.140625 C-66.11080078 107.14289063 -66.22746094 106.14515625 -66.34765625 105.1171875 C-66.49352173 103.76052979 -66.49352173 103.76052979 -66.64233398 102.37646484 C-67.30506759 99.5743175 -68.49479124 98.16633385 -70.2265625 95.90625 C-70.77887507 90.19902011 -70.23773338 86.92486814 -67.2265625 81.90625 C-66.2365625 82.23625 -65.2465625 82.56625 -64.2265625 82.90625 C-63.00554882 79.24320896 -62.7941269 75.7248762 -63.2265625 71.90625 C-63.55527344 71.30296875 -63.88398437 70.6996875 -64.22265625 70.078125 C-66.87859364 64.33220597 -65.9516267 55.53200902 -64.2265625 49.53125 C-63.8965625 48.665 -63.5665625 47.79875 -63.2265625 46.90625 C-62.5665625 46.90625 -61.9065625 46.90625 -61.2265625 46.90625 C-60.89785156 46.15601563 -60.56914063 45.40578125 -60.23046875 44.6328125 C-56.59866695 36.81804115 -52.33075916 30.95773339 -46.2265625 24.90625 C-45.63488281 24.26945312 -45.04320313 23.63265625 -44.43359375 22.9765625 C-40.16043748 18.73170528 -35.7395679 16.80554775 -30.2265625 14.65625 C-23.27717522 11.93453288 -19.68614118 8.83661108 -15.8046875 2.26171875 C-11.90666572 -3.55636822 -5.75173329 -2.82541284 0 0 Z M-15.2265625 5.90625 C-14.8965625 6.89625 -14.5665625 7.88625 -14.2265625 8.90625 C-11.2565625 8.24625 -8.2865625 7.58625 -5.2265625 6.90625 C-7.11031925 4.58141215 -7.11031925 4.58141215 -10.2265625 4.71875 C-13.15042853 4.70545391 -13.15042853 4.70545391 -15.2265625 5.90625 Z M2.7734375 13.90625 C3.7734375 15.90625 3.7734375 15.90625 3.7734375 15.90625 Z M17.7734375 21.90625 C17.4366925 25.17078647 17.4366925 25.17078647 20.3359375 27.71875 C25.10627794 32.97864805 27.78700641 39.53578605 30.7734375 45.90625 C31.1034375 45.90625 31.4334375 45.90625 31.7734375 45.90625 C32.1898833 35.21893081 32.1898833 35.21893081 29.7734375 24.90625 C27.73279298 22.91398283 26.47115952 22.00174115 23.6328125 21.61328125 C21.6796875 21.7109375 19.7265625 21.80859375 17.7734375 21.90625 Z M-63.2265625 51.90625 C-62.2265625 55.90625 -62.2265625 55.90625 -62.2265625 55.90625 Z M-66.2265625 86.90625 C-66.2265625 89.54625 -66.2265625 92.18625 -66.2265625 94.90625 C-65.8965625 94.90625 -65.5665625 94.90625 -65.2265625 94.90625 C-65.2265625 92.26625 -65.2265625 89.62625 -65.2265625 86.90625 C-65.5565625 86.90625 -65.8865625 86.90625 -66.2265625 86.90625 Z M35.7734375 92.90625 C35.7233252 93.58091309 35.67321289 94.25557617 35.62158203 94.95068359 C35.38688217 98.06138816 35.14271389 101.17128337 34.8984375 104.28125 C34.81980469 105.34214844 34.74117188 106.40304688 34.66015625 107.49609375 C34.19353548 113.34680036 33.49345351 118.98636523 32.18359375 124.7109375 C31.54210312 128.14443973 31.64443982 131.42331271 31.7734375 134.90625 C34.67295516 134.58408137 36.49901138 134.09996255 38.8984375 132.40625 C43.8354703 125.82353961 44.21038165 119.21285288 43.35546875 111.19921875 C42.1418658 104.33299537 40.03142045 98.42911719 35.7734375 92.90625 Z " fill="#C63231" transform="translate(79.2265625,7.09375)"/>
<path d="M0 0 C10.893733 9.00885004 15.67683952 20.12670469 17.0546875 33.93359375 C17.32160789 39.19499476 17.30210338 44.45875468 17.26049805 49.7253418 C17.24213816 52.12754896 17.23998987 54.5293702 17.24023438 56.93164062 C17.209025 69.5619604 17.209025 69.5619604 16.48046875 75.234375 C16.08770501 78.6467352 16.33162824 80.65607696 17.0546875 83.93359375 C16.97029687 86.56059246 16.83484896 89.13165439 16.6171875 91.74609375 C16.56498047 92.43896484 16.51277344 93.13183594 16.45898438 93.84570312 C16.33028931 95.54213812 16.19332566 97.23794238 16.0546875 98.93359375 C13.6796875 99.55859375 13.6796875 99.55859375 11.0546875 99.93359375 C10.3946875 99.27359375 9.7346875 98.61359375 9.0546875 97.93359375 C10.20853365 81.7797476 10.20853365 81.7797476 13.0546875 78.93359375 C14.20488574 70.54293896 14.30702643 62.13253643 14.34985352 53.67724609 C14.36133157 52.10879464 14.38171692 50.54038096 14.41137695 48.97216797 C14.67019266 35.21011292 14.30589719 20.47895173 4.73828125 9.6328125 C4.18269531 9.07207031 3.62710938 8.51132812 3.0546875 7.93359375 C2.31798828 7.13888672 2.31798828 7.13888672 1.56640625 6.328125 C-5.37680469 -0.07685253 -15.95514532 -2.46335223 -25.07421875 -2.171875 C-26.00041016 -2.11966797 -26.00041016 -2.11966797 -26.9453125 -2.06640625 C-25.85992187 -1.69128906 -24.77453125 -1.31617188 -23.65625 -0.9296875 C-22.21070168 -0.41342024 -20.76540219 0.10354412 -19.3203125 0.62109375 C-18.25103516 0.98750977 -18.25103516 0.98750977 -17.16015625 1.36132812 C-12.20144989 3.15829052 -8.81870811 5.34734261 -4.9453125 8.93359375 C-8.38862333 8.93359375 -9.99238485 7.83190439 -12.8359375 6.00390625 C-20.79903797 1.96337008 -31.12665103 1.21633836 -39.671875 3.73828125 C-47.80420539 7.79047337 -53.03324406 15.52095159 -55.9453125 23.93359375 C-56.82155768 27.57469392 -57.06297344 30.9309971 -57.04296875 34.671875 C-57.03974609 35.73857422 -57.03652344 36.80527344 -57.03320312 37.90429688 C-57.02482422 39.00708984 -57.01644531 40.10988281 -57.0078125 41.24609375 C-57.00330078 42.36822266 -56.99878906 43.49035156 -56.99414062 44.64648438 C-56.98238563 47.40890885 -56.96595327 50.17122373 -56.9453125 52.93359375 C-55.34101056 52.93359375 -53.73671847 52.9067361 -52.1328125 52.87109375 C-48.9453125 52.93359375 -48.9453125 52.93359375 -46.6953125 53.43359375 C-44.07404451 53.91018793 -42.08530532 53.83688366 -39.4453125 53.68359375 C-32.30549732 53.60866316 -24.75643792 56.03807752 -19.04296875 60.37890625 C-17.6953125 61.74609375 -17.6953125 61.74609375 -15.9453125 63.93359375 C-15.6153125 63.93359375 -15.2853125 63.93359375 -14.9453125 63.93359375 C-14.27376566 61.65017632 -14.27376566 61.65017632 -14.9453125 58.93359375 C-23.40079967 51.71119846 -36.72337084 49.2312627 -47.66015625 49.66015625 C-50.60413588 50.01242732 -53.22645416 50.75787123 -55.9453125 51.93359375 C-55.01394538 48.58067211 -54.09796679 47.06336169 -51.41796875 44.78515625 C-47.0380036 42.44983175 -43.8756747 42.4050844 -39.0078125 42.55859375 C-37.84862305 42.56052734 -37.84862305 42.56052734 -36.66601562 42.5625 C-31.7525048 42.63726179 -27.60622468 43.38202511 -22.9453125 44.93359375 C-24.9253125 45.42859375 -24.9253125 45.42859375 -26.9453125 45.93359375 C-25.98109375 46.3925 -25.016875 46.85140625 -24.0234375 47.32421875 C-22.74718517 47.9435765 -21.47115513 48.56339247 -20.1953125 49.18359375 C-19.56109375 49.48394531 -18.926875 49.78429687 -18.2734375 50.09375 C-14.52843828 51.9272392 -11.69727367 53.79246636 -8.9453125 56.93359375 C-8.2853125 56.27359375 -7.6253125 55.61359375 -6.9453125 54.93359375 C-2.50264585 59.53492706 -0.90291263 64.98790401 1.0546875 70.93359375 C2.82297759 64.86389211 3.32604407 59.4861262 3.25 53.18359375 C3.24575516 51.83551636 3.24575516 51.83551636 3.24142456 50.46020508 C3.23031875 47.6178601 3.20523255 44.77584189 3.1796875 41.93359375 C3.16964527 39.99479625 3.16052161 38.05599376 3.15234375 36.1171875 C3.13041095 31.38919893 3.09594834 26.66145155 3.0546875 21.93359375 C3.7146875 21.93359375 4.3746875 21.93359375 5.0546875 21.93359375 C8.09920404 31.06714338 7.23710716 41.78802913 7.2421875 51.30859375 C7.25443359 52.53964844 7.26667969 53.77070312 7.27929688 55.0390625 C7.28123047 56.22886719 7.28316406 57.41867188 7.28515625 58.64453125 C7.28926514 59.70978027 7.29337402 60.7750293 7.29760742 61.87255859 C7.03556148 65.17460085 6.10970907 67.80526342 5.0546875 70.93359375 C4.75818872 73.82234995 4.75818872 73.82234995 4.78125 76.79296875 C4.76312256 77.90115967 4.74499512 79.00935059 4.72631836 80.15112305 C4.71093018 81.31683838 4.69554199 82.48255371 4.6796875 83.68359375 C4.42047578 94.89015542 3.08370047 105.15594293 0.0546875 115.93359375 C13.14417975 115.99033283 13.14417975 115.99033283 25.328125 111.87109375 C27.2107347 110.84886224 28.96622771 110.37520639 31.0546875 109.93359375 C30.7453125 108.10828125 30.7453125 108.10828125 30.4296875 106.24609375 C29.8711925 101.18030815 30.57439765 96.67567876 31.4453125 91.6796875 C32.27679264 86.56821667 32.81329328 81.43799926 33.35668945 76.28930664 C33.43363037 75.56606201 33.51057129 74.84281738 33.58984375 74.09765625 C33.66501221 73.3905249 33.74018066 72.68339355 33.81762695 71.95483398 C34.03370951 70.11245759 34.31425365 68.2779325 34.6015625 66.4453125 C35.13486619 62.3122089 35.24521082 58.2837695 35.2421875 54.12109375 C35.24355713 53.30592285 35.24492676 52.49075195 35.24633789 51.65087891 C35.19346196 44.85534276 34.57694085 38.19037587 33.6784668 31.45776367 C33.43662036 29.62052097 33.24077115 27.77731914 33.0546875 25.93359375 C33.3846875 25.60359375 33.7146875 25.27359375 34.0546875 24.93359375 C34.15581859 22.21495204 34.19332537 19.52707666 34.1796875 16.80859375 C34.18355469 16.0609375 34.18742187 15.31328125 34.19140625 14.54296875 C34.18332558 9.90466537 33.81924046 5.50877577 33.0546875 0.93359375 C29.08770864 -0.86957846 25.3724333 -1.55843616 21.0546875 -2.06640625 C21.3846875 -2.72640625 21.7146875 -3.38640625 22.0546875 -4.06640625 C28.15482154 -4.70183688 32.25653867 -4.12257834 37.328125 -0.56640625 C41.26816395 2.85661401 43.84737094 7.03598327 44.22265625 12.28125 C44.22910156 13.17714844 44.23554687 14.07304688 44.2421875 14.99609375 C44.25636719 15.87394531 44.27054687 16.75179687 44.28515625 17.65625 C44.08825914 20.45619365 43.66655544 22.90723316 43.0703125 25.63671875 C38.95742513 45.31864067 43.56205652 61.43227426 52.5390625 78.859375 C56.43515967 86.7620257 57.6950143 95.96635084 55.33203125 104.5625 C53.43918588 109.21414834 51.38339556 112.16803027 47.0546875 114.93359375 C47.3846875 112.95359375 47.7146875 110.97359375 48.0546875 108.93359375 C48.7146875 108.93359375 49.3746875 108.93359375 50.0546875 108.93359375 C50.97257885 104.26400361 51.20661348 99.73955359 51.1796875 94.99609375 C51.18355469 94.31869141 51.18742187 93.64128906 51.19140625 92.94335938 C51.60521367 85.44511019 51.60521367 85.44511019 49.0546875 78.93359375 C48.7246875 83.22359375 48.3946875 87.51359375 48.0546875 91.93359375 C47.7246875 91.93359375 47.3946875 91.93359375 47.0546875 91.93359375 C46.65636719 90.27070313 46.65636719 90.27070313 46.25 88.57421875 C45.89348129 87.11061564 45.53669647 85.64707734 45.1796875 84.18359375 C44.91865234 83.08917969 44.91865234 83.08917969 44.65234375 81.97265625 C43.41297636 76.73578805 43.41297636 76.73578805 41.0546875 71.93359375 C40.3946875 71.60359375 39.7346875 71.27359375 39.0546875 70.93359375 C39.00981201 71.51101318 38.96493652 72.08843262 38.91870117 72.68334961 C38.11901809 82.73864241 37.27188769 92.74720747 35.4921875 102.68359375 C35.36545654 103.3912085 35.23872559 104.09882324 35.1081543 104.82788086 C34.20296389 109.63704096 34.20296389 109.63704096 33.0546875 111.93359375 C38.0046875 111.43859375 38.0046875 111.43859375 43.0546875 110.93359375 C42.7246875 111.59359375 42.3946875 112.25359375 42.0546875 112.93359375 C39.98828125 113.34765625 39.98828125 113.34765625 37.4921875 113.55859375 C36.25275391 113.67074219 36.25275391 113.67074219 34.98828125 113.78515625 C34.35019531 113.83414063 33.71210937 113.883125 33.0546875 113.93359375 C32.7246875 115.91359375 32.3946875 117.89359375 32.0546875 119.93359375 C31.7246875 119.93359375 31.3946875 119.93359375 31.0546875 119.93359375 C31.3846875 117.29359375 31.7146875 114.65359375 32.0546875 111.93359375 C30.85972656 112.44019531 30.85972656 112.44019531 29.640625 112.95703125 C28.58101563 113.40304688 27.52140625 113.8490625 26.4296875 114.30859375 C25.38554688 114.74945313 24.34140625 115.1903125 23.265625 115.64453125 C16.86104958 118.21571116 11.53300702 119.29626573 4.6796875 119.55859375 C3.84824219 119.59726563 3.01679687 119.6359375 2.16015625 119.67578125 C0.12533594 119.76933621 -1.90995666 119.85252088 -3.9453125 119.93359375 C-4.2753125 120.59359375 -4.6053125 121.25359375 -4.9453125 121.93359375 C-4.2853125 121.60359375 -3.6253125 121.27359375 -2.9453125 120.93359375 C0.02272679 120.83485272 2.96210296 120.79466143 5.9296875 120.80859375 C7.15365234 120.80279297 7.15365234 120.80279297 8.40234375 120.796875 C9.19253906 120.79816406 9.98273438 120.79945313 10.796875 120.80078125 C11.5172998 120.80190918 12.23772461 120.80303711 12.97998047 120.80419922 C15.11324494 120.93724584 17.00219988 121.35154502 19.0546875 121.93359375 C19.0546875 122.59359375 19.0546875 123.25359375 19.0546875 123.93359375 C18.24725098 123.92835693 17.43981445 123.92312012 16.60791016 123.91772461 C12.96517712 123.89699446 9.32245648 123.88394626 5.6796875 123.87109375 C4.40867187 123.86271484 3.13765625 123.85433594 1.828125 123.84570312 C0.61640625 123.84248047 -0.5953125 123.83925781 -1.84375 123.8359375 C-2.96442871 123.83070068 -4.08510742 123.82546387 -5.23974609 123.82006836 C-7.91398593 123.74737909 -7.91398593 123.74737909 -9.9453125 124.93359375 C-20.25307493 124.22271358 -29.90402333 120.30733941 -39.4453125 116.62109375 C-40.66202637 116.15928711 -41.87874023 115.69748047 -43.13232422 115.22167969 C-57.63929287 109.46542364 -57.63929287 109.46542364 -61.29296875 102.28515625 C-62.4595322 96.29167457 -63.07503196 90.23706181 -63.71289062 84.16796875 C-63.82955078 83.17023438 -63.94621094 82.1725 -64.06640625 81.14453125 C-64.21227173 79.78787354 -64.21227173 79.78787354 -64.36108398 78.40380859 C-65.02381759 75.60166125 -66.21354124 74.1936776 -67.9453125 71.93359375 C-68.49762507 66.22636386 -67.95648338 62.95221189 -64.9453125 57.93359375 C-63.9553125 58.26359375 -62.9653125 58.59359375 -61.9453125 58.93359375 C-60.72429882 55.27055271 -60.5128769 51.75221995 -60.9453125 47.93359375 C-61.27402344 47.3303125 -61.60273437 46.72703125 -61.94140625 46.10546875 C-64.59734364 40.35954972 -63.6703767 31.55935277 -61.9453125 25.55859375 C-61.6153125 24.69234375 -61.2853125 23.82609375 -60.9453125 22.93359375 C-60.2853125 22.93359375 -59.6253125 22.93359375 -58.9453125 22.93359375 C-58.61660156 22.18335937 -58.28789063 21.433125 -57.94921875 20.66015625 C-54.31327791 12.83647868 -49.96393468 7.06492421 -43.9453125 0.93359375 C-43.1409375 -0.03578125 -42.3365625 -1.00515625 -41.5078125 -2.00390625 C-29.56090736 -11.61970795 -11.59721842 -8.13651001 0 0 Z M-60.9453125 27.93359375 C-59.9453125 31.93359375 -59.9453125 31.93359375 -59.9453125 31.93359375 Z M-63.9453125 62.93359375 C-63.9453125 65.57359375 -63.9453125 68.21359375 -63.9453125 70.93359375 C-63.6153125 70.93359375 -63.2853125 70.93359375 -62.9453125 70.93359375 C-62.9453125 68.29359375 -62.9453125 65.65359375 -62.9453125 62.93359375 C-63.2753125 62.93359375 -63.6053125 62.93359375 -63.9453125 62.93359375 Z " fill="#D72B23" transform="translate(76.9453125,31.06640625)"/>
<path d="M0 0 C16.41160451 -0.58381202 16.41160451 -0.58381202 24 3 C25.11955078 3.49306641 25.11955078 3.49306641 26.26171875 3.99609375 C34.25247443 7.91685503 40.79222679 14.62414772 44 23 C46.3346511 30.00395329 46.20134024 36.66226697 46 44 C45.67 44 45.34 44 45 44 C44.80664062 42.85660156 44.61328125 41.71320313 44.4140625 40.53515625 C44.15150234 39.04418963 43.88845639 37.55330851 43.625 36.0625 C43.49867187 35.30775391 43.37234375 34.55300781 43.2421875 33.77539062 C42.89452437 31.83716865 42.45356496 29.91620795 42 28 C41.34 27.67 40.68 27.34 40 27 C40 28.65 40 30.3 40 32 C39.34 32 38.68 32 38 32 C37.505 28.535 37.505 28.535 37 25 C36.34 25 35.68 25 35 25 C35.24230347 25.98963745 35.24230347 25.98963745 35.48950195 26.99926758 C36.11576767 30.68048804 36.16229713 34.28977724 36.16796875 38.01171875 C36.17296135 39.16411797 36.17296135 39.16411797 36.17805481 40.33979797 C36.18310389 41.96277267 36.18546376 43.58575769 36.18530273 45.20874023 C36.18747751 47.66212623 36.20562208 50.1150535 36.22460938 52.56835938 C36.25268446 60.64997423 36.0209164 68.11602969 34 76 C31.80834023 73.18130666 30.48937594 70.93925923 29.5 67.5 C28.45798416 64.15342002 27.40317671 61.63205069 25 59 C24.34 59.66 23.68 60.32 23 61 C22.0925 60.113125 21.185 59.22625 20.25 58.3125 C16.17982247 54.79167159 11.75450853 52.99788519 6.76953125 51.078125 C4.42660466 50.16606895 2.22344035 49.16743885 0 48 C2.31 48 4.62 48 7 48 C2.35581114 46.85063334 -2.18107764 46.74574191 -6.9375 46.6875 C-7.72318359 46.65849609 -8.50886719 46.62949219 -9.31835938 46.59960938 C-14.70261737 46.54103586 -17.7363629 47.41061249 -22 51 C-23.38868516 53.10039331 -23.38868516 53.10039331 -24 55 C-23.236875 54.505 -22.47375 54.01 -21.6875 53.5 C-11.80480332 49.47992 -0.73151176 52.74608872 9 56 C12.4892771 57.56431415 15.47260303 59.08904143 18 62 C18.5625 65.875 18.5625 65.875 18 69 C16 67.625 16 67.625 14 66 C14 65.34 14 64.68 14 64 C13.27683594 63.71382812 12.55367187 63.42765625 11.80859375 63.1328125 C10.05965292 62.42739826 8.32026749 61.69715983 6.59765625 60.9296875 C-0.17594631 58.11170184 -5.91651745 57.66367803 -13.2265625 57.95703125 C-14.14179688 57.97121094 -15.05703125 57.98539063 -16 58 C-16.33 57.67 -16.66 57.34 -17 57 C-21.14276875 56.75266863 -21.14276875 56.75266863 -25 58 C-27.00579216 53.98841567 -26.22900292 48.90938778 -26.25 44.5 C-26.270625 43.448125 -26.29125 42.39625 -26.3125 41.3125 C-26.36987961 29.72181961 -23.69209188 19.93418306 -15.48828125 11.43359375 C-8.6005442 5.377447 -2.67093299 4.51875807 6.23046875 4.7109375 C13.87433312 5.29709912 19.91813362 7.35857566 26 12 C21.95696934 8.35969309 18.03625505 6.60120682 13 4.8125 C12.30132812 4.55275391 11.60265625 4.29300781 10.8828125 4.02539062 C7.28122936 2.71047301 3.79928329 1.61589944 0 1 C0 0.67 0 0.34 0 0 Z " fill="#E03833" transform="translate(45,28)"/>
<path d="M0 0 C6.10013404 -0.63543063 10.20185117 -0.05617209 15.2734375 3.5 C19.21347645 6.92302026 21.79268344 11.10238952 22.16796875 16.34765625 C22.17763672 17.69150391 22.17763672 17.69150391 22.1875 19.0625 C22.20167969 19.94035156 22.21585938 20.81820312 22.23046875 21.72265625 C22.03357164 24.5225999 21.61186794 26.97363941 21.015625 29.703125 C16.90273763 49.38504692 21.50736902 65.49868051 30.484375 82.92578125 C34.38047217 90.82843195 35.6403268 100.03275709 33.27734375 108.62890625 C31.38449838 113.28055459 29.32870806 116.23443652 25 119 C25.33 117.02 25.66 115.04 26 113 C26.66 113 27.32 113 28 113 C28.91789135 108.33040986 29.15192598 103.80595984 29.125 99.0625 C29.12886719 98.38509766 29.13273437 97.70769531 29.13671875 97.00976562 C29.55052617 89.51151644 29.55052617 89.51151644 27 83 C26.67 87.29 26.34 91.58 26 96 C25.67 96 25.34 96 25 96 C24.60167969 94.33710938 24.60167969 94.33710938 24.1953125 92.640625 C23.83879379 91.17702189 23.48200897 89.71348359 23.125 88.25 C22.95097656 87.52039063 22.77695313 86.79078125 22.59765625 86.0390625 C21.35828886 80.8021943 21.35828886 80.8021943 19 76 C18.01 75.505 18.01 75.505 17 75 C16.95512451 75.57741943 16.91024902 76.15483887 16.86401367 76.74975586 C16.06433059 86.80504866 15.21720019 96.81361372 13.4375 106.75 C13.31076904 107.45761475 13.18403809 108.16522949 13.0534668 108.89428711 C12.14827639 113.70344721 12.14827639 113.70344721 11 116 C15.95 115.505 15.95 115.505 21 115 C20.67 115.66 20.34 116.32 20 117 C17.93359375 117.4140625 17.93359375 117.4140625 15.4375 117.625 C14.61121094 117.69976562 13.78492188 117.77453125 12.93359375 117.8515625 C12.29550781 117.90054688 11.65742187 117.94953125 11 118 C10.67 119.98 10.34 121.96 10 124 C9.67 124 9.34 124 9 124 C9.33 121.36 9.66 118.72 10 116 C9.20335937 116.33773437 8.40671875 116.67546875 7.5859375 117.0234375 C6.52632812 117.46945313 5.46671875 117.91546875 4.375 118.375 C3.33085938 118.81585938 2.28671875 119.25671875 1.2109375 119.7109375 C-5.19363792 122.28211741 -10.52168048 123.36267198 -17.375 123.625 C-18.20644531 123.66367188 -19.03789063 123.70234375 -19.89453125 123.7421875 C-21.92935156 123.83574246 -23.96464416 123.91892713 -26 124 C-26.495 124.99 -26.495 124.99 -27 126 C-26.01 125.505 -26.01 125.505 -25 125 C-22.03196071 124.90125897 -19.09258454 124.86106768 -16.125 124.875 C-14.90103516 124.86919922 -14.90103516 124.86919922 -13.65234375 124.86328125 C-12.86214844 124.86457031 -12.07195312 124.86585938 -11.2578125 124.8671875 C-10.5373877 124.86831543 -9.81696289 124.86944336 -9.07470703 124.87060547 C-6.94144256 125.00365209 -5.05248762 125.41795127 -3 126 C-3 126.66 -3 127.32 -3 128 C-3.80743652 127.99476318 -4.61487305 127.98952637 -5.44677734 127.98413086 C-9.08951038 127.96340071 -12.73223102 127.95035251 -16.375 127.9375 C-17.64601563 127.92912109 -18.91703125 127.92074219 -20.2265625 127.91210938 C-21.43828125 127.90888672 -22.65 127.90566406 -23.8984375 127.90234375 C-25.01911621 127.89710693 -26.13979492 127.89187012 -27.29443359 127.88647461 C-29.96867343 127.81378534 -29.96867343 127.81378534 -32 129 C-34.125 128.0625 -34.125 128.0625 -36 127 C-35.236875 126.7525 -34.47375 126.505 -33.6875 126.25 C-30.7635955 124.89004442 -29.69995644 123.68414174 -28 121 C-27.67 121.33 -27.34 121.66 -27 122 C-24.10853316 111.77659938 -22.61180377 102.08686032 -22.625 91.4375 C-22.62371094 90.43976563 -22.62242188 89.44203125 -22.62109375 88.4140625 C-22.73178817 80.89690508 -23.30355897 73.36212153 -27.0625 66.6875 C-28.4817594 64.13283308 -29.38663752 61.86446603 -30 59 C-24.60998945 63.34195294 -23.03399972 68.51165454 -21 75 C-19.23170991 68.93029836 -18.72864343 63.55253245 -18.8046875 57.25 C-18.80893234 55.90192261 -18.80893234 55.90192261 -18.81326294 54.52661133 C-18.82436875 51.68426635 -18.84945495 48.84224814 -18.875 46 C-18.88504223 44.0612025 -18.89416589 42.12240001 -18.90234375 40.18359375 C-18.92427655 35.45560518 -18.95873916 30.7278578 -19 26 C-18.34 26 -17.68 26 -17 26 C-13.95548346 35.13354963 -14.81758034 45.85443538 -14.8125 55.375 C-14.80025391 56.60605469 -14.78800781 57.83710937 -14.77539062 59.10546875 C-14.77249023 60.89017578 -14.77249023 60.89017578 -14.76953125 62.7109375 C-14.76542236 63.77618652 -14.76131348 64.84143555 -14.75708008 65.93896484 C-15.01912602 69.2410071 -15.94497843 71.87166967 -17 75 C-17.29649878 77.8887562 -17.29649878 77.8887562 -17.2734375 80.859375 C-17.29156494 81.96756592 -17.30969238 83.07575684 -17.32836914 84.2175293 C-17.34375732 85.38324463 -17.35914551 86.54895996 -17.375 87.75 C-17.63421172 98.95656167 -18.97098703 109.22234918 -22 120 C-8.91050775 120.05673908 -8.91050775 120.05673908 3.2734375 115.9375 C5.1560472 114.91526849 6.91154021 114.44161264 9 114 C8.79375 112.783125 8.5875 111.56625 8.375 110.3125 C7.816505 105.2467144 8.51971015 100.74208501 9.390625 95.74609375 C10.22210514 90.63462292 10.75860578 85.50440551 11.30200195 80.35571289 C11.41741333 79.27084595 11.41741333 79.27084595 11.53515625 78.1640625 C11.61032471 77.45693115 11.68549316 76.7497998 11.76293945 76.02124023 C11.97902201 74.17886384 12.25956615 72.34433875 12.546875 70.51171875 C13.08017869 66.37861515 13.19052332 62.35017575 13.1875 58.1875 C13.18886963 57.3723291 13.19023926 56.5571582 13.19165039 55.71728516 C13.13877446 48.92174901 12.52225335 42.25678212 11.6237793 35.52416992 C11.38193286 33.68692722 11.18608365 31.84372539 11 30 C11.495 29.505 11.495 29.505 12 29 C12.10113109 26.28135829 12.13863787 23.59348291 12.125 20.875 C12.12886719 20.12734375 12.13273437 19.3796875 12.13671875 18.609375 C12.12863808 13.97107162 11.76455296 9.57518202 11 5 C7.03302114 3.19682779 3.3177458 2.50797009 -1 2 C-0.67 1.34 -0.34 0.68 0 0 Z " fill="#962320" transform="translate(99,27)"/>
<path d="M0 0 C1.32 0.33 2.64 0.66 4 1 C6.34620577 9.06508232 6.45390782 15.67099556 5 23.9375 C2.16740461 41.46674972 4.73242928 54.83369521 12.53735352 70.6628418 C17.59421786 81.01174073 19.67367191 94.16337543 15.8671875 105.3203125 C13.16702975 110.05619128 10.11533057 113.87665524 5 116 C-4.2431466 116.8784267 -4.2431466 116.8784267 -8 115 C-8.020625 115.598125 -8.04125 116.19625 -8.0625 116.8125 C-9 119 -9 119 -12.3125 120.6875 C-19.3374048 123.18788985 -25.56395293 123.21805136 -33 123.25 C-34.75376953 123.2809375 -34.75376953 123.2809375 -36.54296875 123.3125 C-44.45612804 123.34763056 -51.42853396 122.29848076 -59 120 C-55.59442327 119.01245536 -53.46257778 119.25133453 -50 120 C-49.505 119.505 -49.505 119.505 -49 119 C-46.99836123 118.9832207 -44.99605136 119.03737459 -42.99609375 119.12109375 C-41.17368164 119.19360352 -41.17368164 119.19360352 -39.31445312 119.26757812 C-38.03505859 119.32365234 -36.75566406 119.37972656 -35.4375 119.4375 C-34.15423828 119.48970703 -32.87097656 119.54191406 -31.54882812 119.59570312 C-28.36566609 119.7258696 -25.18277996 119.86085001 -22 120 C-22 119.34 -22 118.68 -22 118 C-29.92 118 -37.84 118 -46 118 C-45.67 117.01 -45.34 116.02 -45 115 C-43.77023438 114.95101562 -42.54046875 114.90203125 -41.2734375 114.8515625 C-39.64060434 114.77648971 -38.00779288 114.70094385 -36.375 114.625 C-35.56675781 114.5940625 -34.75851563 114.563125 -33.92578125 114.53125 C-26.5090538 114.16945842 -20.71575187 111.95874959 -14.05078125 108.8046875 C-12 108 -12 108 -9 108 C-9 109.32 -9 110.64 -9 112 C-8.67 111.34 -8.34 110.68 -8 110 C-5.93359375 109.3671875 -5.93359375 109.3671875 -3.4375 108.875 C-2.61121094 108.70742187 -1.78492188 108.53984375 -0.93359375 108.3671875 C-0.29550781 108.24601562 0.34257813 108.12484375 1 108 C-1.97 108 -4.94 108 -8 108 C-7.67 107.34 -7.34 106.68 -7 106 C-5.824375 105.7834375 -5.824375 105.7834375 -4.625 105.5625 C-1.62295096 104.91920378 -0.9423769 104.29410461 1 102 C4.82022799 94.99624869 4.38416432 87.64456764 3 80 C2.05088202 76.96799277 0.98348642 74.06800423 -0.2578125 71.14453125 C-0.50273438 70.43683594 -0.74765625 69.72914062 -1 69 C-0.67 68.34 -0.34 67.68 0 67 C2.63365987 71.9221313 4.64475824 76.57903298 6 82 C6.33 79.36 6.66 76.72 7 74 C10 76 10 76 10.67578125 79.12109375 C11.00912012 83.10911179 11.18369467 87.06309926 11.1875 91.0625 C11.19974609 91.74376953 11.21199219 92.42503906 11.22460938 93.12695312 C11.2371267 97.47046617 10.59267719 100.96479811 9 105 C8.34 105 7.68 105 7 105 C7 106.65 7 108.3 7 110 C12.92858427 103.44735422 14.494589 98.14259893 14.30859375 89.26953125 C13.39107316 79.54845864 9.28110971 71.05006176 4.68359375 62.58203125 C0.82930917 54.38161604 -0.47047883 47.02375097 -0.3125 38 C-0.31572266 37.07960937 -0.31894531 36.15921875 -0.32226562 35.2109375 C-0.27943927 29.6824445 0.35990853 24.59572286 1.5480957 19.20117188 C2.87599057 12.73315451 2.63232383 6.08724886 0 0 Z " fill="#B13836" transform="translate(118,35)"/>
<path d="M0 0 C1.15918945 0.00193359 1.15918945 0.00193359 2.34179688 0.00390625 C7.2553077 0.07866804 11.40158782 0.82343136 16.0625 2.375 C14.7425 2.705 13.4225 3.035 12.0625 3.375 C12.99191406 3.81070313 13.92132813 4.24640625 14.87890625 4.6953125 C24.88348303 9.47323454 32.93764347 13.50667141 37.0625 24.375 C39.0811947 31.14469643 39.44828607 37.78168512 39.4375 44.8125 C39.43617065 46.3739978 39.43617065 46.3739978 39.43481445 47.96704102 C39.33263786 54.74233489 38.70670464 61.19352194 37.25 67.8125 C37.08483887 68.56909912 36.91967773 69.32569824 36.74951172 70.10522461 C36.23046875 72.18359375 36.23046875 72.18359375 35.0625 75.375 C34.0725 75.705 33.0825 76.035 32.0625 76.375 C31.60617188 77.04015625 31.14984375 77.7053125 30.6796875 78.390625 C29.0625 80.375 29.0625 80.375 26.8828125 81.046875 C16.23332033 81.35555593 5.44252208 77.24751378 -3.9375 72.375 C-4.2675 71.715 -4.5975 71.055 -4.9375 70.375 C-6.82013881 69.47156316 -6.82013881 69.47156316 -9 68.75 C-9.73347656 68.48960937 -10.46695312 68.22921875 -11.22265625 67.9609375 C-12.07150391 67.67089844 -12.07150391 67.67089844 -12.9375 67.375 C-12.9375 66.715 -12.9375 66.055 -12.9375 65.375 C-5.22017891 67.90308794 2.42195902 70.62527472 10.0625 73.375 C10.0625 72.715 10.0625 72.055 10.0625 71.375 C8.0825 70.715 6.1025 70.055 4.0625 69.375 C4.0625 69.045 4.0625 68.715 4.0625 68.375 C13.60795455 68.375 13.60795455 68.375 17.0625 70.375 C17.875 73.5 17.875 73.5 18.0625 76.375 C21.3625 76.375 24.6625 76.375 28.0625 76.375 C33.44824879 61.14555069 35.5976319 38.78175955 29.24609375 23.6171875 C24.94407959 15.46749732 18.56685686 12.0801911 9.91015625 9.3984375 C0.98212946 7.12662093 -8.22199608 5.60613344 -16.9375 9.375 C-16.00613288 6.02207836 -15.09015429 4.50476794 -12.41015625 2.2265625 C-8.0301911 -0.108762 -4.8678622 -0.15350935 0 0 Z " fill="#BB261D" transform="translate(37.9375,73.625)"/>
<path d="M0 0 C6.10013404 -0.63543063 10.20185117 -0.05617209 15.2734375 3.5 C19.21347645 6.92302026 21.79268344 11.10238952 22.16796875 16.34765625 C22.17441406 17.24355469 22.18085937 18.13945313 22.1875 19.0625 C22.20167969 19.94035156 22.21585938 20.81820312 22.23046875 21.72265625 C22.03357164 24.5225999 21.61186794 26.97363941 21.015625 29.703125 C16.90273763 49.38504692 21.50736902 65.49868051 30.484375 82.92578125 C34.38047217 90.82843195 35.6403268 100.03275709 33.27734375 108.62890625 C31.38449838 113.28055459 29.32870806 116.23443652 25 119 C25.33 117.02 25.66 115.04 26 113 C26.66 113 27.32 113 28 113 C28.91789135 108.33040986 29.15192598 103.80595984 29.125 99.0625 C29.12886719 98.38509766 29.13273437 97.70769531 29.13671875 97.00976562 C29.55052617 89.51151644 29.55052617 89.51151644 27 83 C26.67 87.29 26.34 91.58 26 96 C25.67 96 25.34 96 25 96 C24.73445313 94.89140625 24.46890625 93.7828125 24.1953125 92.640625 C23.83879379 91.17702189 23.48200897 89.71348359 23.125 88.25 C22.95097656 87.52039063 22.77695313 86.79078125 22.59765625 86.0390625 C21.35828886 80.8021943 21.35828886 80.8021943 19 76 C18.34 75.67 17.68 75.34 17 75 C14.95887207 71.03154476 14.67670981 67.4751133 14.515625 63.0546875 C14.4915155 62.40299591 14.46740601 61.75130432 14.44256592 61.0798645 C14.39450373 59.71013318 14.35106287 58.34023268 14.31201172 56.97021484 C14.24996719 54.87389154 14.16691138 52.77910267 14.08203125 50.68359375 C14.03779764 49.34899966 13.99478646 48.01436436 13.953125 46.6796875 C13.91348633 45.47038574 13.87384766 44.26108398 13.83300781 43.01513672 C14 40 14 40 16 37 C17.64838944 33.70322112 17.14272738 30.05683956 17.125 26.4375 C17.12886719 25.64408203 17.13273437 24.85066406 17.13671875 24.03320312 C17.50440225 20.2085838 17.50440225 20.2085838 16 17 C15.67 19.31 15.34 21.62 15 24 C14.34 23.67 13.68 23.34 13 23 C12.58935547 21.23413086 12.58935547 21.23413086 12.3671875 18.96484375 C12.28339844 18.15595703 12.19960937 17.34707031 12.11328125 16.51367188 C12.03464844 15.66353516 11.95601562 14.81339844 11.875 13.9375 C11.78863281 13.08349609 11.70226562 12.22949219 11.61328125 11.34960938 C11.40052772 9.23389367 11.19920047 7.11703476 11 5 C6.98331946 3.29343106 3.34363544 2.51101593 -1 2 C-0.67 1.34 -0.34 0.68 0 0 Z " fill="#461C13" transform="translate(99,27)"/>
<path d="M0 0 C10.37186866 7.27681501 16.74832276 16.92807634 19.171875 29.30859375 C20.30126143 36.78808221 20.26542211 44.24585271 20.20581055 51.79174805 C20.18745066 54.19395521 20.18530237 56.59577645 20.18554688 58.99804688 C20.1543375 71.62836665 20.1543375 71.62836665 19.42578125 77.30078125 C19.03301751 80.71314145 19.27694074 82.72248321 20 86 C19.91560937 88.62699871 19.78016146 91.19806064 19.5625 93.8125 C19.51029297 94.50537109 19.45808594 95.19824219 19.40429688 95.91210938 C19.27560181 97.60854437 19.13863816 99.30434863 19 101 C16.625 101.625 16.625 101.625 14 102 C13.01 101.01 13.01 101.01 12 100 C13.15384615 83.84615385 13.15384615 83.84615385 16 81 C17.15019824 72.60934521 17.25233893 64.19894268 17.29516602 55.74365234 C17.30664407 54.17520089 17.32702942 52.60678721 17.35668945 51.03857422 C17.60992955 37.57299195 17.35982917 22.49651216 7.93359375 11.89453125 C4.74360869 8.76899033 1.49535721 5.78187192 -2 3 C-2.61488281 2.48179688 -3.22976562 1.96359375 -3.86328125 1.4296875 C-8.91006332 -1.9471356 -14.07484791 -2.34034376 -20 -2.3125 C-20.68578125 -2.32861328 -21.3715625 -2.34472656 -22.078125 -2.36132812 C-26.84135973 -2.3658732 -29.8590575 -1.2368484 -34 1 C-34.66 0.67 -35.32 0.34 -36 0 C-24.95494132 -7.78174589 -11.4820648 -6.86123384 0 0 Z " fill="#591312" transform="translate(74,29)"/>
<path d="M0 0 C0.66 0 1.32 0 2 0 C5.04451654 9.13354963 4.18241966 19.85443538 4.1875 29.375 C4.19974609 30.60605469 4.21199219 31.83710937 4.22460938 33.10546875 C4.22750977 34.89017578 4.22750977 34.89017578 4.23046875 36.7109375 C4.23457764 37.77618652 4.23868652 38.84143555 4.24291992 39.93896484 C3.98087398 43.2410071 3.05502157 45.87166967 2 49 C1.70350122 51.8887562 1.70350122 51.8887562 1.7265625 54.859375 C1.70843506 55.96756592 1.69030762 57.07575684 1.67163086 58.2175293 C1.64854858 59.96610229 1.64854858 59.96610229 1.625 61.75 C1.36578828 72.95656167 0.02901297 83.22234918 -3 94 C1.62 94 6.24 94 11 94 C11 94.33 11 94.66 11 95 C5.06 95.33 -0.88 95.66 -7 96 C-6.2357175 86.82860999 -6.2357175 86.82860999 -4.9765625 82.40234375 C-3.57692685 76.9964584 -3.70859413 71.61433746 -3.75 66.0625 C-3.74226563 65.02931641 -3.73453125 63.99613281 -3.7265625 62.93164062 C-3.74615821 55.19623215 -4.18868726 47.56609525 -8.0625 40.6875 C-9.4817594 38.13283308 -10.38663752 35.86446603 -11 33 C-5.60998945 37.34195294 -4.03399972 42.51165454 -2 49 C-0.23170991 42.93029836 0.27135657 37.55253245 0.1953125 31.25 C0.1924826 30.35128174 0.18965271 29.45256348 0.18673706 28.52661133 C0.17563125 25.68426635 0.15054505 22.84224814 0.125 20 C0.11495777 18.0612025 0.10583411 16.12240001 0.09765625 14.18359375 C0.07572345 9.45560518 0.04126084 4.7278578 0 0 Z " fill="#A31E19" transform="translate(80,53)"/>
<path d="M0 0 C-0.020625 0.9075 -0.04125 1.815 -0.0625 2.75 C-0.0110245 5.42672588 0.2215017 7.46988052 1 10 C-5.79388355 16.22772658 -15.65013212 15.33625654 -24.25 15.3125 C-25.40113281 15.32861328 -26.55226563 15.34472656 -27.73828125 15.36132812 C-35.56896727 15.36574227 -42.50513426 14.25819997 -50 12 C-46.59442327 11.01245536 -44.46257778 11.25133453 -41 12 C-40.67 11.67 -40.34 11.34 -40 11 C-37.99836123 10.9832207 -35.99605136 11.03737459 -33.99609375 11.12109375 C-32.17368164 11.19360352 -32.17368164 11.19360352 -30.31445312 11.26757812 C-29.03505859 11.32365234 -27.75566406 11.37972656 -26.4375 11.4375 C-24.51260742 11.51581055 -24.51260742 11.51581055 -22.54882812 11.59570312 C-19.36566609 11.7258696 -16.18277996 11.86085001 -13 12 C-13 11.34 -13 10.68 -13 10 C-20.92 10 -28.84 10 -37 10 C-36.67 9.01 -36.34 8.02 -36 7 C-34.77023438 6.95101562 -33.54046875 6.90203125 -32.2734375 6.8515625 C-30.64060434 6.77648971 -29.00779288 6.70094385 -27.375 6.625 C-26.56675781 6.5940625 -25.75851563 6.563125 -24.92578125 6.53125 C-17.5090538 6.16945842 -11.71575187 3.95874959 -5.05078125 0.8046875 C-3 0 -3 0 0 0 Z " fill="#704430" transform="translate(109,143)"/>
<path d="M0 0 C10.10523002 -0.66263803 18.43432967 2.09305248 26.33984375 8.47265625 C28.50178468 10.46164191 30.3074637 12.60224025 32 15 C31.67 13.68 31.34 12.36 31 11 C36.60105443 15.63535539 38.11439586 22.0258674 39 29 C39.82817543 43.24005595 39.57155884 57.36874608 35 71 C34.01 71.495 34.01 71.495 33 72 C32.875 64.375 32.875 64.375 34 61 C34.05189921 58.5157823 34.04685424 56.06750572 33.984375 53.5859375 C33.96787903 52.85686188 33.95138306 52.12778625 33.93438721 51.37661743 C33.89690176 49.8315695 33.85635711 48.2865932 33.81298828 46.74169922 C33.75079055 44.40470395 33.70897664 42.06791855 33.66796875 39.73046875 C33.39032463 27.88072248 32.17213804 18.17213804 23.375 9.375 C16.67066942 4.13618892 8.22750528 2.33040511 0 1 C0 0.67 0 0.34 0 0 Z " fill="#9E2928" transform="translate(38,78)"/>
<path d="M0 0 C0.6909375 -0.020625 1.381875 -0.04125 2.09375 -0.0625 C10.31611475 -0.12432229 15.81715188 3.39254325 22.25 8.25 C21.59 8.58 20.93 8.91 20.25 9.25 C19.425 8.63125 18.6 8.0125 17.75 7.375 C11.06786353 2.97228391 3.9831109 2.9647623 -3.75 3.25 C-2.66460937 3.62511719 -1.57921875 4.00023437 -0.4609375 4.38671875 C0.98461082 4.90298601 2.42991031 5.41995037 3.875 5.9375 C4.58785156 6.18177734 5.30070312 6.42605469 6.03515625 6.67773438 C10.99386261 8.47469677 14.37660439 10.66374886 18.25 14.25 C14.80668917 14.25 13.20292765 13.14831064 10.359375 11.3203125 C2.39627453 7.27977633 -7.93133853 6.53274461 -16.4765625 9.0546875 C-24.60889289 13.10687962 -29.83793156 20.83735784 -32.75 29.25 C-33.65196248 32.95428129 -33.84517005 36.32962572 -33.77734375 40.13671875 C-33.76509766 41.23951172 -33.75285156 42.34230469 -33.74023438 43.47851562 C-33.70489855 45.79628377 -33.66579826 48.1139974 -33.62304688 50.43164062 C-33.61208984 51.53056641 -33.60113281 52.62949219 -33.58984375 53.76171875 C-33.57300537 54.76678467 -33.55616699 55.77185059 -33.53881836 56.80737305 C-33.75 59.25 -33.75 59.25 -35.75 61.25 C-35.90025302 56.77014848 -36.00808956 52.29169665 -36.07958984 47.81005859 C-36.10944607 46.29124352 -36.15014835 44.77259596 -36.20263672 43.25439453 C-36.60917465 31.17782655 -34.80290187 23.01209363 -27.37109375 13.06640625 C-26.65050781 12.32261719 -25.92992187 11.57882813 -25.1875 10.8125 C-24.424375 10.01199219 -23.66125 9.21148437 -22.875 8.38671875 C-22.17375 7.68160156 -21.4725 6.97648437 -20.75 6.25 C-20.193125 5.67894531 -19.63625 5.10789062 -19.0625 4.51953125 C-17.97323495 3.41479369 -16.86486286 2.32889954 -15.75 1.25 C-15.09 1.58 -14.43 1.91 -13.75 2.25 C-12.76 1.92 -11.77 1.59 -10.75 1.25 C-7.12762495 0.04254165 -3.7729405 0.02753971 0 0 Z " fill="#BF2921" transform="translate(53.75,25.75)"/>
<path d="M0 0 C3.15842999 2.57923366 3.99251691 5.35531286 5.1875 9.1875 C5.53167969 10.27417969 5.87585938 11.36085938 6.23046875 12.48046875 C6.48441406 13.31191406 6.73835938 14.14335938 7 15 C7.33 12.36 7.66 9.72 8 7 C11 9 11 9 11.67578125 12.12109375 C12.00912012 16.10911179 12.18369467 20.06309926 12.1875 24.0625 C12.19974609 24.74376953 12.21199219 25.42503906 12.22460938 26.12695312 C12.2371267 30.47046617 11.59267719 33.96479811 10 38 C9.34 38 8.68 38 8 38 C7.67 39.98 7.34 41.96 7 44 C3.85069107 45.04976964 1.61185544 45.10131595 -1.6875 45.0625 C-2.68136719 45.05347656 -3.67523438 45.04445312 -4.69921875 45.03515625 C-5.83810547 45.01775391 -5.83810547 45.01775391 -7 45 C-7 44.34 -7 43.68 -7 43 C-4.03 42.34 -1.06 41.68 2 41 C-0.97 41 -3.94 41 -7 41 C-6.67 40.34 -6.34 39.68 -6 39 C-5.21625 38.855625 -4.4325 38.71125 -3.625 38.5625 C-0.62295096 37.91920378 0.0576231 37.29410461 2 35 C5.82265661 27.99179622 5.37596345 20.64927049 4 13 C3.08464757 9.96974054 2.04382013 7.07092223 0.83984375 4.14453125 C0 2 0 2 0 0 Z " fill="#8D443C" transform="translate(117,102)"/>
<path d="M0 0 C16.41160451 -0.58381202 16.41160451 -0.58381202 24 3 C24.74636719 3.32871094 25.49273437 3.65742188 26.26171875 3.99609375 C32.41919878 7.01733608 37.1097973 11.33959608 41 17 C41 17.99 41 18.98 41 20 C38.69 20.33 36.38 20.66 34 21 C33.814375 20.319375 33.62875 19.63875 33.4375 18.9375 C30.56957693 13.07696156 26.19670444 9.17201853 20.1171875 6.8203125 C18.37677062 6.23406681 16.62905184 5.66909289 14.875 5.125 C13.55435547 4.68414062 13.55435547 4.68414062 12.20703125 4.234375 C8.15788468 2.90298141 4.19374548 1.7843017 0 1 C0 0.67 0 0.34 0 0 Z " fill="#F57170" transform="translate(45,28)"/>
<path d="M0 0 C4.84750103 1.62085179 9.3570372 3.32684036 12.7734375 7.26171875 C13.3359375 11.13671875 13.3359375 11.13671875 12.7734375 14.26171875 C10.7734375 12.88671875 10.7734375 12.88671875 8.7734375 11.26171875 C8.7734375 10.60171875 8.7734375 9.94171875 8.7734375 9.26171875 C8.05027344 8.97554687 7.32710937 8.689375 6.58203125 8.39453125 C4.83309042 7.68911701 3.09370499 6.95887858 1.37109375 6.19140625 C-5.30347488 3.41462115 -10.84070753 3.0168554 -18.03125 3.25390625 C-21.86104245 3.26327005 -24.67495537 2.61471194 -28.2265625 1.26171875 C-20.96335229 -6.33163738 -9.08917555 -2.58595912 0 0 Z " fill="#F1625F" transform="translate(50.2265625,82.73828125)"/>
<path d="M0 0 C0 0.66 0 1.32 0 2 C3.3 1.67 6.6 1.34 10 1 C9.67 1.66 9.34 2.32 9 3 C6.93359375 3.4140625 6.93359375 3.4140625 4.4375 3.625 C3.61121094 3.69976562 2.78492188 3.77453125 1.93359375 3.8515625 C0.97646484 3.92503906 0.97646484 3.92503906 0 4 C-0.33 5.98 -0.66 7.96 -1 10 C-1.33 10 -1.66 10 -2 10 C-1.67 7.36 -1.34 4.72 -1 2 C-1.79664063 2.33773437 -2.59328125 2.67546875 -3.4140625 3.0234375 C-4.47367188 3.46945313 -5.53328125 3.91546875 -6.625 4.375 C-7.66914062 4.81585938 -8.71328125 5.25671875 -9.7890625 5.7109375 C-16.19363792 8.28211741 -21.52168048 9.36267198 -28.375 9.625 C-29.20644531 9.66367188 -30.03789063 9.70234375 -30.89453125 9.7421875 C-32.92935156 9.83574246 -34.96464416 9.91892713 -37 10 C-37.33 10.66 -37.66 11.32 -38 12 C-37.34 11.67 -36.68 11.34 -36 11 C-33.03196071 10.90125897 -30.09258454 10.86106768 -27.125 10.875 C-25.90103516 10.86919922 -25.90103516 10.86919922 -24.65234375 10.86328125 C-23.86214844 10.86457031 -23.07195312 10.86585938 -22.2578125 10.8671875 C-21.5373877 10.86831543 -20.81696289 10.86944336 -20.07470703 10.87060547 C-17.94144256 11.00365209 -16.05248762 11.41795127 -14 12 C-14 12.66 -14 13.32 -14 14 C-14.80743652 13.99476318 -15.61487305 13.98952637 -16.44677734 13.98413086 C-20.08951038 13.96340071 -23.73223102 13.95035251 -27.375 13.9375 C-28.64601563 13.92912109 -29.91703125 13.92074219 -31.2265625 13.91210938 C-32.43828125 13.90888672 -33.65 13.90566406 -34.8984375 13.90234375 C-36.01911621 13.89710693 -37.13979492 13.89187012 -38.29443359 13.88647461 C-40.96867343 13.81378534 -40.96867343 13.81378534 -43 15 C-45.125 14.0625 -45.125 14.0625 -47 13 C-46.236875 12.7525 -45.47375 12.505 -44.6875 12.25 C-41.72509328 10.87213641 -40.88592499 9.5717159 -39 7 C-38.01 7 -37.02 7 -36 7 C-24.85954129 6.97450696 -15.69890285 5.37524045 -5.31640625 1.27734375 C-2 0 -2 0 0 0 Z " fill="#5D2612" transform="translate(110,141)"/>
<path d="M0 0 C6.10013404 -0.63543063 10.20185117 -0.05617209 15.2734375 3.5 C18.68974159 6.4680108 20.58557856 9.75673569 22 14 C22.46398843 20.67927533 21.93139323 26.60225992 20 33 C19.67 33 19.34 33 19 33 C19 28.05 19 23.1 19 18 C18.01 17.67 17.02 17.34 16 17 C15.67 19.31 15.34 21.62 15 24 C14.34 23.67 13.68 23.34 13 23 C12.58935547 21.23413086 12.58935547 21.23413086 12.3671875 18.96484375 C12.28339844 18.15595703 12.19960937 17.34707031 12.11328125 16.51367188 C12.03464844 15.66353516 11.95601562 14.81339844 11.875 13.9375 C11.78863281 13.08349609 11.70226562 12.22949219 11.61328125 11.34960938 C11.40052772 9.23389367 11.19920047 7.11703476 11 5 C6.98331946 3.29343106 3.34363544 2.51101593 -1 2 C-0.67 1.34 -0.34 0.68 0 0 Z " fill="#501A0B" transform="translate(99,27)"/>
<path d="M0 0 C4.05687233 1.97878912 7.25213073 4.10251351 8.9453125 8.3984375 C9.44007891 10.60746498 9.79969242 12.74653976 10 15 C10.61875 14.835 11.2375 14.67 11.875 14.5 C18.49751068 13.44039829 24.736929 13.36291747 31 16 C31 17.33333333 31 18.66666667 31 20 C26.71 20 22.42 20 18 20 C20 18 20 18 23.625 17.875 C25.295625 17.936875 25.295625 17.936875 27 18 C27 17.34 27 16.68 27 16 C20.73 16.33 14.46 16.66 8 17 C7.67 15.68 7.34 14.36 7 13 C6.01 13.495 6.01 13.495 5 14 C4.2884375 12.9171875 4.2884375 12.9171875 3.5625 11.8125 C0.21056616 8.13354822 -3.59173505 6.21355185 -8 4 C-7.67 3.34 -7.34 2.68 -7 2 C-7.99 1.34 -8.98 0.68 -10 0 C-6.66668253 -1.66665873 -3.45805271 -0.96124192 0 0 Z " fill="#D15349" transform="translate(77,6)"/>
<path d="M0 0 C0.66 0 1.32 0 2 0 C7.36706114 8.05059171 6.2284671 20.38653028 6.3125 29.75 C6.33006348 30.80268066 6.34762695 31.85536133 6.36572266 32.93994141 C6.36034634 39.78184399 5.35981822 45.57500875 3 52 C2.67 52 2.34 52 2 52 C1.97494385 50.74453369 1.9498877 49.48906738 1.92407227 48.19555664 C1.82937125 43.50454804 1.7293077 38.81366608 1.62768555 34.12280273 C1.58457238 32.09874449 1.54288243 30.07465537 1.50268555 28.05053711 C1.44440608 25.12864917 1.38088285 22.20691324 1.31640625 19.28515625 C1.29969376 18.39103531 1.28298126 17.49691437 1.26576233 16.57569885 C1.13634746 10.99419645 0.68985731 5.54095359 0 0 Z " fill="#D62727" transform="translate(92,56)"/>
<path d="M0 0 C1.06734375 0.46986328 1.06734375 0.46986328 2.15625 0.94921875 C4.49072566 2.27967204 5.42328093 3.71681217 6.8125 6 C7.25207031 6.70125 7.69164063 7.4025 8.14453125 8.125 C8.42683594 8.74375 8.70914063 9.3625 9 10 C8.67 10.66 8.34 11.32 8 12 C7.34 11.34 6.68 10.68 6 10 C5.34 10.66 4.68 11.32 4 12 C3.0925 11.113125 2.185 10.22625 1.25 9.3125 C-2.82017753 5.79167159 -7.24549147 3.99788519 -12.23046875 2.078125 C-14.57339534 1.16606895 -16.77655965 0.16743885 -19 -1 C-16.69 -1 -14.38 -1 -12 -1 C-13.65 -1.33 -15.3 -1.66 -17 -2 C-17.33 -2.99 -17.66 -3.98 -18 -5 C-10.65817397 -7.28412365 -6.24830375 -3.77960181 0 0 Z " fill="#CE3C35" transform="translate(64,77)"/>
<path d="M0 0 C5.82271337 -0.59720137 9.9209404 1.471757 15 4 C15 4.66 15 5.32 15 6 C15.76957031 6.23074219 16.53914063 6.46148437 17.33203125 6.69921875 C20.60449638 8.29472517 21.21009485 9.53864873 22.6875 12.8125 C23.08324219 13.66457031 23.47898437 14.51664063 23.88671875 15.39453125 C24.9638431 17.91538018 25.99694293 20.44884571 27 23 C25.35 23 23.7 23 22 23 C22 22.34 22 21.68 22 21 C21.01 20.67 20.02 20.34 19 20 C17.67578125 18.1796875 17.67578125 18.1796875 16.3125 15.875 C12.11916308 9.32421496 6.75742702 4.8010527 0 1 C0 0.67 0 0.34 0 0 Z " fill="#F2605F" transform="translate(69,26)"/>
<path d="M0 0 C0.33 0.66 0.66 1.32 1 2 C1.66 2 2.32 2 3 2 C3.59633028 29.11314985 3.59633028 29.11314985 0 42 C4.62 42 9.24 42 14 42 C14 42.33 14 42.66 14 43 C8.06 43.33 2.12 43.66 -4 44 C-3.23529412 34.82352941 -3.23529412 34.82352941 -2 30.5 C-0.46673744 24.60133386 -0.53484719 18.56087244 -0.375 12.5 C-0.33632812 11.29601562 -0.29765625 10.09203125 -0.2578125 8.8515625 C-0.16414984 5.90118881 -0.07842476 2.95081144 0 0 Z " fill="#85160F" transform="translate(77,105)"/>
<path d="M0 0 C0.91938912 3.11515458 1.1049806 5.86366829 1.0625 9.10546875 C1.05476563 10.08966797 1.04703125 11.07386719 1.0390625 12.08789062 C1.01326693 14.13476874 0.98723001 16.18164383 0.9609375 18.22851562 C0.91399292 24.24133336 1.02862817 30.05641861 2 36 C2.66 36.33 3.32 36.66 4 37 C4.12375 38.11375 4.2475 39.2275 4.375 40.375 C4.60911676 44.04761004 4.60911676 44.04761004 7.0625 45.75 C7.701875 46.1625 8.34125 46.575 9 47 C9 47.99 9 48.98 9 50 C10.11375 50.185625 10.11375 50.185625 11.25 50.375 C13.80141485 50.95486701 15.7267573 51.73708739 18 53 C14.28293106 54.23902298 13.54642689 53.63781397 10.125 51.9375 C5.64167803 49.5389881 2.6460892 47.46527552 0 43 C-2.13187361 35.18479822 -2.30825086 27.29832769 -2.25 19.25 C-2.26160156 17.62384766 -2.26160156 17.62384766 -2.2734375 15.96484375 C-2.25949048 10.25353812 -1.93923513 5.38676424 0 0 Z " fill="#BF2E26" transform="translate(16,91)"/>
<path d="M0 0 C0.66 0.33 1.32 0.66 2 1 C4.10265358 7.30796074 4.21546317 14.76577448 1.87109375 21.00390625 C-0.89721183 25.85386198 -3.72971816 29.81233584 -9 32 C-14.25774811 32.57412192 -18.51238024 32.99174651 -23 30 C-23 29.34 -23 28.68 -23 28 C-21.90300781 27.92523438 -20.80601563 27.85046875 -19.67578125 27.7734375 C-18.22122401 27.64205814 -16.7668029 27.50916545 -15.3125 27.375 C-14.2306543 27.30732422 -14.2306543 27.30732422 -13.12695312 27.23828125 C-8.88266688 26.8119146 -7.33553188 26.31424983 -4.10546875 23.2890625 C-0.48942287 17.64024871 0.25077836 13.29125317 0.125 6.625 C0.10695312 5.37976563 0.08890625 4.13453125 0.0703125 2.8515625 C0.04710937 1.91054687 0.02390625 0.96953125 0 0 Z " fill="#A63733" transform="translate(132,119)"/>
<path d="M0 0 C0.33 0 0.66 0 1 0 C1.76646963 9.20942734 2.11781466 18.26347202 1.625 27.5 C1.58189697 28.33055908 1.53879395 29.16111816 1.49438477 30.0168457 C1.1354612 35.8645388 1.1354612 35.8645388 0 37 C0.02633164 39.00665114 0.02633164 39.00665114 0.3125 41.3125 C0.39113281 42.09238281 0.46976562 42.87226562 0.55078125 43.67578125 C1.01623901 46.08401924 1.9013523 47.82568887 3 50 C2.625 52.25 2.625 52.25 2 54 C2 53.34 2 52.68 2 52 C1.01 52 0.02 52 -1 52 C-4.30167696 47.04748456 -3.56348098 41.33022357 -3.75 35.5 C-3.80542969 34.25089844 -3.86085938 33.00179687 -3.91796875 31.71484375 C-3.96050781 30.51988281 -4.00304687 29.32492188 -4.046875 28.09375 C-4.08651367 26.99740234 -4.12615234 25.90105469 -4.16699219 24.77148438 C-4 22 -4 22 -2 19 C-0.3501993 15.70039859 -0.61741639 12.00872116 -0.4375 8.375 C-0.39431641 7.57320312 -0.35113281 6.77140625 -0.30664062 5.9453125 C-0.20048543 3.9637489 -0.09973145 1.98189729 0 0 Z " fill="#672816" transform="translate(117,45)"/>
<path d="M0 0 C0.77730469 -0.00322266 1.55460937 -0.00644531 2.35546875 -0.00976562 C7.30160847 0.03595499 11.43449312 0.7427437 16.125 2.3125 C14.805 2.6425 13.485 2.9725 12.125 3.3125 C13.06601562 3.73660156 14.00703125 4.16070312 14.9765625 4.59765625 C22.07775588 7.90153187 27.6878214 10.59334383 32.125 17.3125 C32.76171875 19.51953125 32.76171875 19.51953125 33.125 21.3125 C30.99143048 19.25512939 29.08938936 17.26382694 27.3359375 14.8671875 C21.53418968 8.16340116 11.75045324 5.16951619 3.125 4.3125 C-3.27547591 3.86368614 -8.73005768 4.49177635 -14.875 6.3125 C-13.875 3.3125 -13.875 3.3125 -11.8671875 1.64453125 C-7.81992033 -0.15718951 -4.37686274 -0.08983708 0 0 Z " fill="#911E1A" transform="translate(37.875,73.6875)"/>
<path d="M0 0 C0.6909375 -0.020625 1.381875 -0.04125 2.09375 -0.0625 C10.31611475 -0.12432229 15.81715188 3.39254325 22.25 8.25 C21.59 8.58 20.93 8.91 20.25 9.25 C19.425 8.63125 18.6 8.0125 17.75 7.375 C11.06786353 2.97228391 3.9831109 2.9647623 -3.75 3.25 C-3.09 3.91 -2.43 4.57 -1.75 5.25 C-2.53503906 5.27578125 -3.32007812 5.3015625 -4.12890625 5.328125 C-10.92910066 5.69525206 -15.048702 6.61087361 -20.75 10.25 C-21.74 9.92 -22.73 9.59 -23.75 9.25 C-21.11 6.61 -18.47 3.97 -15.75 1.25 C-15.09 1.58 -14.43 1.91 -13.75 2.25 C-12.76 1.92 -11.77 1.59 -10.75 1.25 C-7.12762495 0.04254165 -3.7729405 0.02753971 0 0 Z " fill="#EF342E" transform="translate(53.75,25.75)"/>
<path d="M0 0 C10.87953288 -0.39166318 21.40388892 -0.62945368 30.390625 6.41015625 C33.5028176 9.48457952 36.222118 12.99259661 38 17 C37.65625 19.27734375 37.65625 19.27734375 37 21 C34 16.25 34 16.25 34 14 C33.40316406 13.73058594 32.80632812 13.46117187 32.19140625 13.18359375 C30.01177037 12.00635726 28.67255178 10.80642673 26.9375 9.0625 C19.08458081 2.24329841 8.87033699 2.57631304 -1 3 C-0.67 2.01 -0.34 1.02 0 0 Z " fill="#F05E5C" transform="translate(40,33)"/>
<path d="M0 0 C0.66 0.66 1.32 1.32 2 2 C1.90493337 6.84839804 0.85040582 10.88798022 -2.20703125 14.65625 C-5.39030467 17.04197125 -8.22615734 16.97925061 -12.11328125 16.76953125 C-20.55576341 15.09800463 -29.35048338 11.97359141 -37 8 C-37.33 7.34 -37.66 6.68 -38 6 C-39.88263881 5.09656316 -39.88263881 5.09656316 -42.0625 4.375 C-42.79597656 4.11460937 -43.52945313 3.85421875 -44.28515625 3.5859375 C-44.85105469 3.39257812 -45.41695312 3.19921875 -46 3 C-46 2.34 -46 1.68 -46 1 C-40.12754308 2.88757544 -34.30352044 4.91088768 -28.5 7 C-27.78134766 7.2489502 -27.06269531 7.49790039 -26.32226562 7.75439453 C-24.51363279 8.41510801 -22.7512273 9.19943895 -21 10 C-20.67 10.99 -20.34 11.98 -20 13 C-15.12579746 14.29978734 -9.99575359 14.73978929 -5 14 C-1.36390933 10.47753716 -0.89982667 4.85906402 0 0 Z " fill="#9C2119" transform="translate(71,138)"/>
<path d="M0 0 C3.93827228 5.90740842 3.62999474 13.10505756 3 20 C1.4287996 25.77245365 -0.85806099 29.7148723 -6 33 C-5.67 31.02 -5.34 29.04 -5 27 C-4.34 27 -3.68 27 -3 27 C-1.84335263 21.51730931 -1.88583745 16.19660726 -1.9375 10.625 C-1.94201172 9.69816406 -1.94652344 8.77132812 -1.95117188 7.81640625 C-1.96288426 5.54420291 -1.97928628 3.27213612 -2 1 C-1.34 0.67 -0.68 0.34 0 0 Z " fill="#592911" transform="translate(130,113)"/>
<path d="M0 0 C0.928125 0.0825 1.85625 0.165 2.8125 0.25 C2.8125 1.24 2.8125 2.23 2.8125 3.25 C4.71470933 4.76928733 4.71470933 4.76928733 7.125 6.125 C10.7704194 8.4177166 13.0269744 10.20280863 14.8125 14.25 C13.8225 14.745 13.8225 14.745 12.8125 15.25 C11.4925 13.27 10.1725 11.29 8.8125 9.25 C5.17681647 9.66466698 5.17681647 9.66466698 2.375 11.8125 C0.8125 13.25 0.8125 13.25 -2.375 13.4375 C-3.303125 13.375625 -4.23125 13.31375 -5.1875 13.25 C-5.5175 11.27 -5.8475 9.29 -6.1875 7.25 C-7.1775 7.745 -7.1775 7.745 -8.1875 8.25 C-4.52180233 0.35465116 -4.52180233 0.35465116 0 0 Z M-4.1875 6.25 C-3.8575 7.24 -3.5275 8.23 -3.1875 9.25 C-0.2175 8.59 2.7525 7.93 5.8125 7.25 C3.92874325 4.92516215 3.92874325 4.92516215 0.8125 5.0625 C-2.11136603 5.04920391 -2.11136603 5.04920391 -4.1875 6.25 Z " fill="#A85049" transform="translate(68.1875,6.75)"/>
<path d="M0 0 C1.32 0.33 2.64 0.66 4 1 C3.67 7.27 3.34 13.54 3 20 C1.35 20.33 -0.3 20.66 -2 21 C-2.66 20.34 -3.32 19.68 -4 19 C-2.84615385 2.84615385 -2.84615385 2.84615385 0 0 Z " fill="#5F5858" transform="translate(90,110)"/>
<path d="M0 0 C9.97048192 -0.65380209 18.49740829 2.00465402 26.28515625 8.375 C31.90099297 13.69661293 35.66405875 20.22754604 36.12011719 28.06396484 C36.24965519 33.04693074 36.15441616 38.01864891 36 43 C35.67 43 35.34 43 35 43 C34.93530518 42.410979 34.87061035 41.82195801 34.80395508 41.21508789 C34.49353461 38.49484537 34.15321473 35.77910784 33.8125 33.0625 C33.71130859 32.13630859 33.61011719 31.21011719 33.50585938 30.25585938 C32.35228035 21.37018313 29.20823878 13.90365087 22.0078125 8.27734375 C15.28423105 3.99989018 7.77983136 2.25801528 0 1 C0 0.67 0 0.34 0 0 Z " fill="#F24541" transform="translate(38,78)"/>
<path d="M0 0 C3.83434477 3.83434477 3.11533092 9.87283687 3.13894653 15.05099487 C3.1369223 15.77408844 3.13489807 16.49718201 3.1328125 17.2421875 C3.13376923 18.00999542 3.13472595 18.77780334 3.13571167 19.56887817 C3.13638838 21.18410322 3.13456983 22.79933106 3.13037109 24.41455078 C3.12503042 26.86106612 3.13032586 29.30739666 3.13671875 31.75390625 C3.13605759 33.33333373 3.13477565 34.9127611 3.1328125 36.4921875 C3.13483673 37.2112326 3.13686096 37.93027771 3.13894653 38.67111206 C3.11557103 43.843372 2.63609042 48.86642814 2 54 C1.34 54 0.68 54 0 54 C0 36.18 0 18.36 0 0 Z " fill="#3D0C0B" transform="translate(91,56)"/>
<path d="M0 0 C1.61717338 3.12358145 2.98181697 6.30731123 4.3125 9.5625 C6.01508316 13.69302719 7.79765505 17.76442976 9.6875 21.8125 C12.28564769 27.49084165 14.38601635 32.6307302 14 39 C11.3804608 35.85957261 10.0567699 32.8396022 8.6875 29 C6.97158016 24.35814999 5.05076449 20.00583214 2.75 15.625 C0.51005687 11.26603613 -0.89560405 7.90660953 -1 3 C-0.67 2.01 -0.34 1.02 0 0 Z " fill="#BA3E3C" transform="translate(121,84)"/>
<path d="M0 0 C5.92939046 0.35576343 8.80630075 1.80630075 13 6 C14.9375 8.6875 14.9375 8.6875 16 11 C15.67 11.66 15.34 12.32 15 13 C14.46890625 12.59007812 13.9378125 12.18015625 13.390625 11.7578125 C12.68421875 11.21898437 11.9778125 10.68015625 11.25 10.125 C10.55390625 9.59132813 9.8578125 9.05765625 9.140625 8.5078125 C5.52705515 5.96248775 2.89945031 4.71014949 -1.5625 4.6875 C-2.32691406 4.67074219 -3.09132813 4.65398438 -3.87890625 4.63671875 C-6.49718783 5.08515372 -7.2494929 6.07697916 -9 8 C-9.66 8 -10.32 8 -11 8 C-11 7.34 -11 6.68 -11 6 C-11.66 6 -12.32 6 -13 6 C-12.67 5.01 -12.34 4.02 -12 3 C-7.38 2.67 -2.76 2.34 2 2 C1.34 1.34 0.68 0.68 0 0 Z " fill="#C64541" transform="translate(105,23)"/>
<path d="M0 0 C3.24762523 7.80621845 3.35733073 15.67551745 3 24 C2.67 24 2.34 24 2 24 C1.80664062 22.85660156 1.61328125 21.71320313 1.4140625 20.53515625 C1.15150234 19.04418963 0.88845639 17.55330851 0.625 16.0625 C0.49867187 15.30775391 0.37234375 14.55300781 0.2421875 13.77539062 C-0.10547563 11.83716865 -0.54643504 9.91620795 -1 8 C-1.66 7.67 -2.32 7.34 -3 7 C-3 8.65 -3 10.3 -3 12 C-3.66 12 -4.32 12 -5 12 C-5.99 8.37 -6.98 4.74 -8 1 C-2.25 -1.125 -2.25 -1.125 0 0 Z " fill="#D84545" transform="translate(88,48)"/>
<path d="M0 0 C1 3 1 3 2 6 C4.16343011 3.96731398 4.16343011 3.96731398 6 1 C6 2.98 6 4.96 6 7 C5.34 7 4.68 7 4 7 C3.67 8.98 3.34 10.96 3 13 C-0.14930893 14.04976964 -2.38814456 14.10131595 -5.6875 14.0625 C-6.68136719 14.05347656 -7.67523438 14.04445312 -8.69921875 14.03515625 C-9.83810547 14.01775391 -9.83810547 14.01775391 -11 14 C-11 13.34 -11 12.68 -11 12 C-8.03 11.34 -5.06 10.68 -2 10 C-4.97 10 -7.94 10 -11 10 C-10.67 9.34 -10.34 8.68 -10 8 C-9.21625 7.855625 -8.4325 7.71125 -7.625 7.5625 C-4.66704467 6.92865243 -3.82719836 6.34925503 -2 4 C-0.82425289 1.90010348 -0.82425289 1.90010348 0 0 Z " fill="#865138" transform="translate(121,133)"/>
<path d="M0 0 C1.4370809 -0.05422947 2.87475462 -0.09289723 4.3125 -0.125 C5.11300781 -0.14820312 5.91351563 -0.17140625 6.73828125 -0.1953125 C9 0 9 0 12 2 C12.6875 5.125 12.6875 5.125 13 8 C13.99 8.33 14.98 8.66 16 9 C18.29013653 12.4352048 18.17842973 13.985331 18 18 C17.34 17.67 16.68 17.34 16 17 C15.67 19.31 15.34 21.62 15 24 C14.34 23.67 13.68 23.34 13 23 C12.58935547 21.23413086 12.58935547 21.23413086 12.3671875 18.96484375 C12.28339844 18.15595703 12.19960937 17.34707031 12.11328125 16.51367188 C12.03464844 15.66353516 11.95601562 14.81339844 11.875 13.9375 C11.78863281 13.08349609 11.70226562 12.22949219 11.61328125 11.34960938 C11.40052772 9.23389367 11.19920047 7.11703476 11 5 C6.98331946 3.29343106 3.34363544 2.51101593 -1 2 C-0.67 1.34 -0.34 0.68 0 0 Z " fill="#441D19" transform="translate(99,27)"/>
<path d="M0 0 C4.84455959 1.58549223 4.84455959 1.58549223 7 3 C7.9375 6.1875 7.9375 6.1875 8 9 C11.96 9 15.92 9 20 9 C19.01 10.485 19.01 10.485 18 12 C12.97978692 12.82633596 7.45913489 12.5891751 3 10 C2.67 9.34 2.34 8.68 2 8 C1.01 7.34 0.02 6.68 -1 6 C-0.67 5.34 -0.34 4.68 0 4 C-1.98 3.34 -3.96 2.68 -6 2 C-6 1.67 -6 1.34 -6 1 C-4.7934375 1.0309375 -4.7934375 1.0309375 -3.5625 1.0625 C-1.06645115 1.29633621 -1.06645115 1.29633621 0 0 Z " fill="#BA0900" transform="translate(48,141)"/>
<path d="M0 0 C0 0.99 0 1.98 0 3 C-9.49310207 8.85477661 -18.25494044 8.53193364 -29 8 C-29 7.01 -29 6.02 -29 5 C-28.01 5.33 -27.02 5.66 -26 6 C-24.33541327 6.09308544 -22.66718003 6.12996185 -21 6.125 C-19.700625 6.12886719 -19.700625 6.12886719 -18.375 6.1328125 C-15.84988305 6.09594205 -15.84988305 6.09594205 -13 5 C-13 4.34 -13 3.68 -13 3 C-13.99 2.67 -14.98 2.34 -16 2 C-14.08404518 1.66259915 -12.16720278 1.33023588 -10.25 1 C-9.18265625 0.814375 -8.1153125 0.62875 -7.015625 0.4375 C-4 0 -4 0 0 0 Z " fill="#C03E3E" transform="translate(106,139)"/>
<path d="M0 0 C0.66 0 1.32 0 2 0 C5.09192333 9.27577 4.12801376 20.09427935 4.0625 29.75 C4.05798828 31.03132813 4.05347656 32.31265625 4.04882812 33.6328125 C4.0371772 36.75525931 4.02082025 39.87760318 4 43 C3.34 43 2.68 43 2 43 C1.97494385 42.12375977 1.9498877 41.24751953 1.92407227 40.34472656 C1.82785728 37.03458212 1.72870552 33.72455079 1.62768555 30.41455078 C1.58487654 28.99303524 1.54317473 27.57148585 1.50268555 26.14990234 C1.25280589 17.40719938 0.8438481 8.70975488 0 0 Z " fill="#94160D" transform="translate(80,53)"/>
<path d="M0 0 C3.08221315 3.09034564 3.36517133 5.72257126 3.36132812 10.00390625 C3.34521484 10.74511719 3.32910156 11.48632812 3.3125 12.25 C3.31572266 12.97574219 3.31894531 13.70148437 3.32226562 14.44921875 C3.27193327 19.58311913 2.40172196 24.06325812 1 29 C-3.08043714 22.87934429 -1.86183167 16.58563976 -1.0625 9.625 C-0.96259766 8.69816406 -0.86269531 7.77132812 -0.75976562 6.81640625 C-0.51371624 4.54337864 -0.26027524 2.27143509 0 0 Z " fill="#7B432E" transform="translate(114,41)"/>
<path d="M0 0 C0.33 0 0.66 0 1 0 C1 2.31 1 4.62 1 7 C5.764373 6.01213108 5.764373 6.01213108 9.625 3.3125 C10.07875 2.879375 10.5325 2.44625 11 2 C13.5 2.0625 13.5 2.0625 16 3 C19 6.20689655 19 6.20689655 19 9 C11.74 8.67 4.48 8.34 -3 8 C-2 2 -2 2 0 0 Z " fill="#B1180E" transform="translate(62,13)"/>
<path d="M0 0 C2.88524527 1.76048864 5.45212614 3.78416289 8 6 C7.67 6.66 7.34 7.32 7 8 C1.070087 8 -2.76117654 6.80216138 -8 4 C-7.67 3.34 -7.34 2.68 -7 2 C-7.99 1.34 -8.98 0.68 -10 0 C-6.68412869 -1.65793566 -3.43536456 -1.00547255 0 0 Z " fill="#FB7F7D" transform="translate(77,6)"/>
<path d="M0 0 C2.8269455 1.82310976 4.49903972 3.86548746 6.453125 6.58203125 C5.8859375 6.29457031 5.31875 6.00710937 4.734375 5.7109375 C2.4918966 4.60121788 0.23443165 3.54690051 -2.046875 2.51953125 C-2.7996875 2.17792969 -3.5525 1.83632813 -4.328125 1.484375 C-11.53685346 -1.44734379 -21.12297302 -2.06062404 -28.4609375 0.6640625 C-30.59226802 1.86857665 -32.56941846 3.14259391 -34.546875 4.58203125 C-35.536875 5.07703125 -35.536875 5.07703125 -36.546875 5.58203125 C-36.19482859 2.96682938 -35.85376841 1.84647455 -33.82421875 0.09765625 C-22.8484446 -5.83915648 -11.15108006 -4.90585226 0 0 Z " fill="#9E231B" transform="translate(65.546875,34.41796875)"/>
<path d="M0 0 C2.20441749 3.30662623 3.08353611 6.20510414 4.25 10 C6.14525653 16.00297645 8.53668837 21.25328447 11.86328125 26.6328125 C13.14177468 29.29524212 13.22316711 31.08325776 13 34 C10.12699954 32.56349977 9.96252727 30.78373086 8.8125 27.8125 C6.37611358 21.70694481 3.4700897 16.00421756 0.35546875 10.2265625 C-1.06598799 6.84292197 -1.35851704 4.62797844 -1 1 C-0.67 0.67 -0.34 0.34 0 0 Z " fill="#320F06" transform="translate(117,81)"/>
<path d="M0 0 C0.99 0.33 1.98 0.66 3 1 C3.92713898 9.81495217 4.00938907 16.5737106 1 25 C0.67 25 0.34 25 0 25 C-0.19789024 21.77138267 -0.38146345 18.54210273 -0.5625 15.3125 C-0.61857422 14.40048828 -0.67464844 13.48847656 -0.73242188 12.54882812 C-0.78076172 11.66259766 -0.82910156 10.77636719 -0.87890625 9.86328125 C-0.9260376 9.05157471 -0.97316895 8.23986816 -1.02172852 7.40356445 C-0.99838228 4.8210515 -0.5804792 2.51150091 0 0 Z " fill="#D92B2B" transform="translate(85,55)"/>
<path d="M0 0 C0.93199219 0.00064453 1.86398438 0.00128906 2.82421875 0.00195312 C6.81429338 0.02771401 10.39391289 0.08110981 14.25 1.1875 C14.25 1.8475 14.25 2.5075 14.25 3.1875 C13.44256348 3.18226318 12.63512695 3.17702637 11.80322266 3.17163086 C8.16048962 3.15090071 4.51776898 3.13785251 0.875 3.125 C-0.39601563 3.11662109 -1.66703125 3.10824219 -2.9765625 3.09960938 C-4.18828125 3.09638672 -5.4 3.09316406 -6.6484375 3.08984375 C-7.76911621 3.08460693 -8.88979492 3.07937012 -10.04443359 3.07397461 C-12.71867343 3.00128534 -12.71867343 3.00128534 -14.75 4.1875 C-16.875 3.25 -16.875 3.25 -18.75 2.1875 C-12.37253846 0.29372328 -6.63173635 -0.0886097 0 0 Z " fill="#62341D" transform="translate(81.75,151.8125)"/>
<path d="M0 0 C1.06734375 0.46986328 1.06734375 0.46986328 2.15625 0.94921875 C4.49072566 2.27967204 5.42328093 3.71681217 6.8125 6 C7.25207031 6.70125 7.69164063 7.4025 8.14453125 8.125 C8.42683594 8.74375 8.70914063 9.3625 9 10 C8.67 10.66 8.34 11.32 8 12 C7.21625 10.96875 6.4325 9.9375 5.625 8.875 C0.06135393 2.42117056 -6.88454003 -1.33796373 -15.28515625 -2.578125 C-15.85105469 -2.71734375 -16.41695312 -2.8565625 -17 -3 C-17.33 -3.66 -17.66 -4.32 -18 -5 C-10.65817397 -7.28412365 -6.24830375 -3.77960181 0 0 Z " fill="#D64C4A" transform="translate(64,77)"/>
<path d="M0 0 C4.84659077 0.59104765 8.60748167 1.97944157 13 4 C13 4.66 13 5.32 13 6 C13.76957031 6.23074219 14.53914063 6.46148437 15.33203125 6.69921875 C18.60449638 8.29472517 19.21009485 9.53864873 20.6875 12.8125 C21.08324219 13.66457031 21.47898437 14.51664063 21.88671875 15.39453125 C22.9638431 17.91538018 23.99694293 20.44884571 25 23 C24.34 23 23.68 23 23 23 C21.7734375 21.34765625 21.7734375 21.34765625 20.375 19.0625 C15.42129932 11.43307778 10.79885488 4.99161066 2 2 C1.34 1.34 0.68 0.68 0 0 Z " fill="#F34240" transform="translate(71,26)"/>
<path d="M0 0 C0.75410156 0.00451172 1.50820312 0.00902344 2.28515625 0.01367188 C4.14847127 0.02546501 6.01174555 0.04340058 7.875 0.0625 C7.875 0.7225 7.875 1.3825 7.875 2.0625 C6.95267578 2.22685547 6.95267578 2.22685547 6.01171875 2.39453125 C5.20347656 2.55308594 4.39523438 2.71164063 3.5625 2.875 C2.36173828 3.10123047 2.36173828 3.10123047 1.13671875 3.33203125 C-1.35945587 4.13822236 -2.44922106 5.08302002 -4.125 7.0625 C-3.465 7.0625 -2.805 7.0625 -2.125 7.0625 C-2.455 7.7225 -2.785 8.3825 -3.125 9.0625 C-5.765 7.4125 -8.405 5.7625 -11.125 4.0625 C-10.795 3.0725 -10.465 2.0825 -10.125 1.0625 C-6.93675432 -0.53162284 -3.49603338 -0.03924735 0 0 Z " fill="#E1241C" transform="translate(96.125,21.9375)"/>
<path d="M0 0 C0.05411124 2.41696872 0.09372278 4.83271787 0.125 7.25 C0.15013672 8.27287109 0.15013672 8.27287109 0.17578125 9.31640625 C0.21213482 13.0608235 0.07944349 15.82352727 -2 19 C-2.33 18.67 -2.66 18.34 -3 18 C-3.99 18.99 -4.98 19.98 -6 21 C-7.13805733 17.585828 -6.86529183 17.02701781 -5.625 13.8125 C-4.4869189 10.66604049 -3.75561523 7.83120669 -3.4375 4.5 C-3.293125 3.345 -3.14875 2.19 -3 1 C-1 0 -1 0 0 0 Z " fill="#855137" transform="translate(129,119)"/>
<path d="M0 0 C1.04449911 3.13349732 0.93423645 3.98968256 0 7 C1.258125 7.28875 2.51625 7.5775 3.8125 7.875 C6.8539399 8.57303539 8.30669878 9.20446585 11 11 C10.01 11.495 10.01 11.495 9 12 C8.11054687 11.69578125 7.22109375 11.3915625 6.3046875 11.078125 C-1.76726297 8.44472272 -11.00666814 9.44213381 -19 12 C-15.93266357 8.19695558 -11.41110447 6.96042883 -7.00585938 5.25 C-3.53357777 3.84498826 -2.13725265 3.20587897 0 0 Z " fill="#D33B33" transform="translate(59,15)"/>
<path d="M0 0 C0.33 0 0.66 0 1 0 C1.18188153 4.63797911 0.78639337 7.75731574 -1 12 C-1.16798262 14.70886941 -1.16798262 14.70886941 -1 17 C-0.195625 17.12375 0.60875 17.2475 1.4375 17.375 C2.7059375 17.684375 2.7059375 17.684375 4 18 C4.33 18.66 4.66 19.32 5 20 C3.75 22.625 3.75 22.625 2 25 C1.01 25 0.02 25 -1 25 C-4.12749967 20.30875049 -3.45866576 15.4973418 -3 10 C-2.2303048 6.56973988 -1.22424985 3.29381506 0 0 Z " fill="#A92D2D" transform="translate(88,112)"/>
<path d="M0 0 C0.33 0 0.66 0 1 0 C1.33 7.59 1.66 15.18 2 23 C2.66 22.01 3.32 21.02 4 20 C4.36517527 26.57315478 3.13619737 31.79485526 1 38 C0.67 38 0.34 38 0 38 C0 25.46 0 12.92 0 0 Z " fill="#BF2424" transform="translate(94,70)"/>
<path d="M0 0 C0.33 0 0.66 0 1 0 C1.07509534 4.21342607 1.12903946 8.42648036 1.16479492 12.64038086 C1.1797265 14.06883545 1.20007938 15.49724548 1.22631836 16.92553711 C1.37934157 25.47983454 1.49680336 33.99301744 -2 42 C-2.99 42.495 -2.99 42.495 -4 43 C-3.79503906 41.82308594 -3.59007813 40.64617187 -3.37890625 39.43359375 C-1.1963826 26.29261752 -0.32784166 13.3092846 0 0 Z " fill="#B71D11" transform="translate(71,107)"/>
<path d="M0 0 C0.66 0.33 1.32 0.66 2 1 C4.33197099 1.13117337 6.66579508 1.23014398 9 1.3125 C15.62090382 1.63028427 21.08143042 3.00590009 27 6 C24.38761037 6.96755172 23.31085014 7.12559602 20.6796875 6.0625 C17.32464047 4.73221896 14.72038381 4.87412223 11.125 5 C5.92956314 5.08731827 1.84393271 4.8453077 -3 3 C-2.01 2.01 -1.02 1.02 0 0 Z " fill="#EE4D49" transform="translate(25,81)"/>
<path d="M0 0 C0.33 0 0.66 0 1 0 C0.98839844 0.92941406 0.97679688 1.85882813 0.96484375 2.81640625 C0.95582031 4.05261719 0.94679688 5.28882813 0.9375 6.5625 C0.92589844 7.78066406 0.91429688 8.99882813 0.90234375 10.25390625 C0.9161578 13.91555185 0.9161578 13.91555185 1.5 17.15625 C2.22775424 22.75086073 2.10414312 28.30286546 2.0625 33.9375 C2.05798828 35.09830078 2.05347656 36.25910156 2.04882812 37.45507812 C2.03710647 40.30343934 2.0206976 43.15169222 2 46 C1.34 46 0.68 46 0 46 C0.02320312 44.69289062 0.04640625 43.38578125 0.0703125 42.0390625 C0.18674382 32.22371708 0.05281039 22.66807057 -1.46435547 12.95166016 C-2.17231621 7.9605958 -1.64222666 4.65905787 0 0 Z " fill="#A81C18" transform="translate(112,50)"/>
<path d="M0 0 C8.61738853 -0.30654742 15.93475404 -0.39589303 24 3 C20.93109813 4.53445094 18.29905734 3.54984289 15 3 C16.98 3.99 18.96 4.98 21 6 C19 7 19 7 15.91796875 6.0390625 C14.68691406 5.57242188 13.45585938 5.10578125 12.1875 4.625 C8.13031519 3.09447085 4.28583906 1.70206125 0 1 C0 0.67 0 0.34 0 0 Z " fill="#F45650" transform="translate(45,28)"/>
<path d="M0 0 C0 0.66 0 1.32 0 2 C3.3 1.67 6.6 1.34 10 1 C9.67 1.66 9.34 2.32 9 3 C6.93359375 3.4140625 6.93359375 3.4140625 4.4375 3.625 C3.61121094 3.69976562 2.78492187 3.77453125 1.93359375 3.8515625 C0.97646484 3.92503906 0.97646484 3.92503906 0 4 C-0.33 5.98 -0.66 7.96 -1 10 C-1.33 10 -1.66 10 -2 10 C-1.67 7.36 -1.34 4.72 -1 2 C-1.67546875 2.30035156 -2.3509375 2.60070312 -3.046875 2.91015625 C-4.38492188 3.48056641 -4.38492188 3.48056641 -5.75 4.0625 C-6.63171875 4.44535156 -7.5134375 4.82820312 -8.421875 5.22265625 C-11.15256309 6.04600008 -12.36901347 5.9773992 -15 5 C-13.58521865 4.35004703 -12.16808513 3.70521278 -10.75 3.0625 C-9.96109375 2.70285156 -9.1721875 2.34320313 -8.359375 1.97265625 C-5.54282939 0.81153066 -3.05480984 0 0 0 Z " fill="#73261B" transform="translate(110,141)"/>
<path d="M0 0 C0.99 0 1.98 0 3 0 C2.42978066 5.3503559 1.79265639 10.67787852 1 16 C0.34 16 -0.32 16 -1 16 C-3.50081439 11.29258468 -2.98296857 8.07867094 -2 3 C-1.34 2.01 -0.68 1.02 0 0 Z " fill="#8B2623" transform="translate(110,125)"/>
<path d="M0 0 C0.33 0 0.66 0 1 0 C1 2.64 1 5.28 1 8 C1.66 8 2.32 8 3 8 C3.08074203 10.62561109 3.1403623 13.24875676 3.1875 15.875 C3.22520508 16.99455078 3.22520508 16.99455078 3.26367188 18.13671875 C3.29296875 20.3046875 3.29296875 20.3046875 3 24 C2.01 24.66 1.02 25.32 0 26 C-0.02712153 24.083412 -0.04645097 22.1667127 -0.0625 20.25 C-0.07410156 19.18265625 -0.08570312 18.1153125 -0.09765625 17.015625 C-0.01510087 14.46631499 0.25382442 12.42066409 1 10 C0.34 9.67 -0.32 9.34 -1 9 C-0.67 6.03 -0.34 3.06 0 0 Z " fill="#9B2C2C" transform="translate(93,101)"/>
<path d="M0 0 C5.13123565 2.32826992 9.63336988 5.92923192 11.96484375 11.16796875 C12.5625 13.3125 12.5625 13.3125 13 17 C12.34 17.66 11.68 18.32 11 19 C10.70867187 18.38253906 10.41734375 17.76507813 10.1171875 17.12890625 C7.18422436 11.06929373 3.87009643 5.50591039 0 0 Z " fill="#C03126" transform="translate(68,36)"/>
<path d="M0 0 C3.1108633 4.66629496 3.12311555 8.79648451 3.0625 14.3125 C3.05347656 15.38113281 3.04445312 16.44976562 3.03515625 17.55078125 C3.02355469 18.35902344 3.01195312 19.16726562 3 20 C2.34 20.33 1.68 20.66 1 21 C0.63611825 17.87605066 0.28555397 14.75074918 -0.0625 11.625 C-0.16626953 10.73554687 -0.27003906 9.84609375 -0.37695312 8.9296875 C-0.47041016 8.07890625 -0.56386719 7.228125 -0.66015625 6.3515625 C-0.74918213 5.56604004 -0.83820801 4.78051758 -0.92993164 3.97119141 C-1 2 -1 2 0 0 Z " fill="#541F0B" transform="translate(130,113)"/>
<path d="M0 0 C2.4682001 4.36605914 2.55390845 8.07904521 2 13 C1.19696399 15.80830511 0.17268342 18.3126005 -1 21 C-1.33 21 -1.66 21 -2 21 C-2.3690205 6.21867882 -2.3690205 6.21867882 0 0 Z M0 5 C1 9 1 9 1 9 Z " fill="#D7251E" transform="translate(16,54)"/>
<path d="M0 0 C0.99 0.33 1.98 0.66 3 1 C7.01938078 9.33649346 6.28005616 17.96559583 6 27 C5.67 27 5.34 27 5 27 C4.91959473 26.39526855 4.83918945 25.79053711 4.75634766 25.16748047 C4.38524507 22.40247506 4.00520095 19.63876842 3.625 16.875 C3.49867187 15.92367187 3.37234375 14.97234375 3.2421875 13.9921875 C2.56589627 9.12289062 1.78640169 4.61357653 0 0 Z " fill="#CA4141" transform="translate(68,94)"/>
<path d="M0 0 C11.52164009 -0.18451025 11.52164009 -0.18451025 17 1 C15 3 15 3 11.3046875 3.1953125 C9.82799892 3.182009 8.35137642 3.15814835 6.875 3.125 C6.12089844 3.11597656 5.36679687 3.10695313 4.58984375 3.09765625 C2.72642746 3.0740687 0.86317407 3.03819719 -1 3 C-0.67 2.01 -0.34 1.02 0 0 Z " fill="#EA5A58" transform="translate(27,80)"/>
<path d="M0 0 C0.33 0.99 0.66 1.98 1 3 C-8.405 3.495 -8.405 3.495 -18 4 C-18 3.34 -18 2.68 -18 2 C-11.84629161 0.176679 -6.40353322 -0.2361959 0 0 Z " fill="#CC3229" transform="translate(46,71)"/>
<path d="M0 0 C3.50019659 1.89199816 6.11692379 3.43206614 8 7 C8.1875 10.75 8.1875 10.75 8 14 C7.401875 13.236875 6.80375 12.47375 6.1875 11.6875 C4.20641661 9.0879739 4.20641661 9.0879739 2.3125 7.5625 C0.37718876 5.25855805 0.32522743 2.92704689 0 0 Z " fill="#23100A" transform="translate(111,29)"/>
<path d="M0 0 C0.33 0 0.66 0 1 0 C0.85704109 1.39613065 0.71048442 2.79189308 0.5625 4.1875 C0.48128906 4.96480469 0.40007812 5.74210938 0.31640625 6.54296875 C-0.00597621 9.04640786 -0.50498105 11.52490524 -1 14 C3.62 14 8.24 14 13 14 C13 14.33 13 14.66 13 15 C7.39 15 1.78 15 -4 15 C-2.125 3.75 -2.125 3.75 0 0 Z " fill="#8C241A" transform="translate(78,133)"/>
<path d="M0 0 C2 3 2 3 3 5 C4.97522846 6.04808041 6.97481509 7.0520411 9 8 C9 8.99 9 9.98 9 11 C9.7425 11.12375 10.485 11.2475 11.25 11.375 C13.80141485 11.95486701 15.7267573 12.73708739 18 14 C14.28293106 15.23902298 13.54642689 14.63781397 10.125 12.9375 C5.54775609 10.52842426 2.78318463 8.36032259 0 4 C0 2.68 0 1.36 0 0 Z " fill="#A83C33" transform="translate(16,130)"/>
<path d="M0 0 C2.90802461 2.21928194 4.95312762 3.92969143 7 7 C7 7.99 7 8.98 7 10 C4.69 10.33 2.38 10.66 0 11 C0.185625 9.9275 0.37125 8.855 0.5625 7.75 C0.9304568 4.59608454 1.04465343 2.90181508 0 0 Z " fill="#EE5A59" transform="translate(79,38)"/>
<path d="M0 0 C0.33 0 0.66 0 1 0 C1.0272616 2.04159095 1.04651345 4.08328963 1.0625 6.125 C1.07410156 7.26195312 1.08570312 8.39890625 1.09765625 9.5703125 C1.005327 12.8129156 0.61389906 15.81932612 0 19 C-2.55415948 15.16876078 -3.33670639 12.25593279 -2.6484375 7.64453125 C-1.2959596 1.2959596 -1.2959596 1.2959596 0 0 Z " fill="#964B36" transform="translate(115,51)"/>
<path d="M0 0 C0.66 0.33 1.32 0.66 2 1 C3.18681726 4.56045177 3.09689832 7.43808337 3.0625 11.1875 C3.05347656 12.45980469 3.04445312 13.73210937 3.03515625 15.04296875 C3.02355469 16.01878906 3.01195312 16.99460938 3 18 C2.01 18 1.02 18 0 18 C-0.33 18.66 -0.66 19.32 -1 20 C-0.83628906 19.16210938 -0.67257813 18.32421875 -0.50390625 17.4609375 C0.02987283 13.79482693 0.09743025 10.32760615 0.0625 6.625 C0.05347656 5.37976563 0.04445312 4.13453125 0.03515625 2.8515625 C0.02355469 1.91054687 0.01195312 0.96953125 0 0 Z " fill="#AF3533" transform="translate(132,119)"/>
<path d="M0 0 C4.04735984 3.34953917 5.71112914 7.01636599 7 12 C7.1875 15.5 7.1875 15.5 7 18 C6.67 17.01 6.34 16.02 6 15 C5.34 15 4.68 15 4 15 C3.3299166 12.87607494 2.66403203 10.75082476 2 8.625 C1.62875 7.44164063 1.2575 6.25828125 0.875 5.0390625 C0 2 0 2 0 0 Z " fill="#B12F2F" transform="translate(69,89)"/>
<path d="M0 0 C4.95 0 9.9 0 15 0 C15 0.99 15 1.98 15 3 C9.72 3 4.44 3 -1 3 C-0.67 2.01 -0.34 1.02 0 0 Z " fill="#F54A44" transform="translate(40,33)"/>
<path d="M0 0 C0.89130413 2.6739124 1.47731534 5.23723823 2 8 C-1.31371 10.20914 -2.3446021 10.22481553 -6.1875 10.125 C-7.08855469 10.10695312 -7.98960938 10.08890625 -8.91796875 10.0703125 C-9.60503906 10.04710937 -10.29210937 10.02390625 -11 10 C-10.67 9.34 -10.34 8.68 -10 8 C-9.21625 7.855625 -8.4325 7.71125 -7.625 7.5625 C-4.66704467 6.92865243 -3.82719836 6.34925503 -2 4 C-0.82425289 1.90010348 -0.82425289 1.90010348 0 0 Z " fill="#AE534B" transform="translate(121,133)"/>
<path d="M0 0 C0.94875 0.165 1.8975 0.33 2.875 0.5 C7.5763877 1.18541792 12.26003286 1.08583441 17 1 C16.01 2.485 16.01 2.485 15 4 C9.87370229 4.84379768 4.62149 4.46479466 0 2 C0 1.34 0 0.68 0 0 Z " fill="#A50A03" transform="translate(51,149)"/>
<path d="M0 0 C0.99 0.33 1.98 0.66 3 1 C2.84152588 1.5662207 2.68305176 2.13244141 2.51977539 2.71582031 C1.99214152 5.0345345 1.795844 7.17358397 1.68359375 9.546875 C1.64169922 10.39121094 1.59980469 11.23554687 1.55664062 12.10546875 C1.51732422 12.97816406 1.47800781 13.85085937 1.4375 14.75 C1.39431641 15.63816406 1.35113281 16.52632812 1.30664062 17.44140625 C1.20086385 19.62745963 1.09877454 21.81362089 1 24 C0.67 24 0.34 24 0 24 C-0.19533059 20.9378174 -0.38153284 17.87553679 -0.5625 14.8125 C-0.61857422 13.94818359 -0.67464844 13.08386719 -0.73242188 12.19335938 C-0.9761489 7.95250921 -1.15770796 4.14202181 0 0 Z " fill="#DA3636" transform="translate(85,55)"/>
<path d="M0 0 C0 1.65 0 3.3 0 5 C-1.65 5.66 -3.3 6.32 -5 7 C-5.33 6.01 -5.66 5.02 -6 4 C-6.66 3.67 -7.32 3.34 -8 3 C-8 2.34 -8 1.68 -8 1 C-2.25 -1.125 -2.25 -1.125 0 0 Z " fill="#E34E4E" transform="translate(88,48)"/>
<path d="M0 0 C0.66 0 1.32 0 2 0 C7.05908096 9.8380744 7.05908096 9.8380744 6.8125 14.6875 C6.4103125 15.8321875 6.4103125 15.8321875 6 17 C3.12901395 11.69971806 0.93190117 5.96416751 0 0 Z " fill="#4E1110" transform="translate(85,42)"/>
<path d="M0 0 C0 4.95 0 9.9 0 15 C-0.33 15 -0.66 15 -1 15 C-1.33 13.35 -1.66 11.7 -2 10 C-2.99 10.495 -2.99 10.495 -4 11 C-3.8864371 9.35333797 -3.75882619 7.70763918 -3.625 6.0625 C-3.55539063 5.14597656 -3.48578125 4.22945313 -3.4140625 3.28515625 C-3.27742188 2.53105469 -3.14078125 1.77695313 -3 1 C-1 0 -1 0 0 0 Z " fill="#75462F" transform="translate(129,119)"/>
<path d="M0 0 C1.84851083 2.77276624 2.5205764 4.39992766 3.25 7.5625 C3.44078125 8.34753906 3.6315625 9.13257812 3.828125 9.94140625 C3.88484375 10.62074219 3.9415625 11.30007812 4 12 C3.34 12.66 2.68 13.32 2 14 C-0.19790854 9.42102388 -1.49432386 6.19040052 -1 1 C-0.67 0.67 -0.34 0.34 0 0 Z " fill="#431609" transform="translate(117,81)"/>
<path d="M0 0 C2.64 0 5.28 0 8 0 C6.3125 2.5 6.3125 2.5 4 5 C1.25 5.3125 1.25 5.3125 -1 5 C-0.67 3.35 -0.34 1.7 0 0 Z " fill="#DE2D20" transform="translate(65,15)"/>
<path d="M0 0 C0.928125 0.0825 1.85625 0.165 2.8125 0.25 C2.8125 1.58333333 2.8125 2.91666667 2.8125 4.25 C1.554375 4.53875 0.29625 4.8275 -1 5.125 C-4.0414399 5.82303539 -5.49419878 6.45446585 -8.1875 8.25 C-4.52180233 0.35465116 -4.52180233 0.35465116 0 0 Z " fill="#E94740" transform="translate(68.1875,6.75)"/>
<path d="M0 0 C4.65524142 3.90033741 6.94156912 7.96262383 8 14 C7.5703125 16.27734375 7.5703125 16.27734375 7 18 C6.49339844 16.75283203 6.49339844 16.75283203 5.9765625 15.48046875 C5.53054687 14.39378906 5.08453125 13.30710937 4.625 12.1875 C3.96371094 10.56908203 3.96371094 10.56908203 3.2890625 8.91796875 C2.0520881 5.89269888 2.0520881 5.89269888 0 3 C0 2.01 0 1.02 0 0 Z " fill="#8E170F" transform="translate(69,86)"/>
<path d="M0 0 C5.2688172 7.90322581 5.2688172 7.90322581 4.6875 12.4375 C4.460625 12.953125 4.23375 13.46875 4 14 C4 13.34 4 12.68 4 12 C3.01 12 2.02 12 1 12 C-0.26237731 9.47524538 -0.09856404 7.68799534 -0.0625 4.875 C-0.05347656 3.96492188 -0.04445313 3.05484375 -0.03515625 2.1171875 C-0.02355469 1.41851562 -0.01195313 0.71984375 0 0 Z " fill="#512E1E" transform="translate(115,85)"/>
<path d="M0 0 C1.65 0 3.3 0 5 0 C5.66 1.65 6.32 3.3 7 5 C4.03 4.67 1.06 4.34 -2 4 C-1.34 2.68 -0.68 1.36 0 0 Z " fill="#350E08" transform="translate(74,17)"/>
<path d="M0 0 C0.99 0.495 0.99 0.495 2 1 C2 2.32 2 3.64 2 5 C2.66 5.33 3.32 5.66 4 6 C4.59355614 8.64860427 4.74209269 11.29197322 5 14 C2 13 2 13 0.8125 10.9375 C-0.23642055 7.14524878 -0.13319932 3.92937998 0 0 Z " fill="#AF0F06" transform="translate(16,122)"/>
<path d="M0 0 C0.66 0 1.32 0 2 0 C4.29013653 3.4352048 4.17842973 4.985331 4 9 C3.34 8.67 2.68 8.34 2 8 C1.67 10.31 1.34 12.62 1 15 C0.67 15 0.34 15 0 15 C0 10.05 0 5.1 0 0 Z " fill="#51291A" transform="translate(113,36)"/>
<path d="M0 0 C0.66 0.33 1.32 0.66 2 1 C2 1.99 2 2.98 2 4 C-1.15830185 7.06806466 -3.61999924 8.49942848 -8 9 C-7.04270084 7.87411986 -6.08412105 6.7493285 -5.125 5.625 C-4.59132812 4.99851562 -4.05765625 4.37203125 -3.5078125 3.7265625 C-2.38567993 2.44163349 -1.20628025 1.20628025 0 0 Z " fill="#C43B30" transform="translate(38,27)"/>
<path d="M0 0 C4.35763296 0.5028038 6.91905734 3.05301137 10 6 C11.375 8.8125 11.375 8.8125 12 11 C11.34 11 10.68 11 10 11 C8.77190702 9.5727568 7.54951959 8.13961383 6.375 6.66796875 C4.40277625 4.27552687 2.22288381 2.15937284 0 0 Z " fill="#EF5655" transform="translate(57,83)"/>
<path d="M0 0 C0.66 0 1.32 0 2 0 C0.63855967 5.19822672 -1.46730171 8.09543873 -5 12 C-6.32 11.67 -7.64 11.34 -9 11 C-8.071875 10.29875 -7.14375 9.5975 -6.1875 8.875 C-3.09904705 6.32684378 -1.55573813 3.71648553 0 0 Z " fill="#8F3735" transform="translate(132,137)"/>
<path d="M0 0 C1.32 0.33 2.64 0.66 4 1 C5.14819277 6.8685408 4.77313045 12.0885256 4 18 C3.67 18 3.34 18 3 18 C2.95101562 17.20335938 2.90203125 16.40671875 2.8515625 15.5859375 C2.29970605 7.61842686 2.29970605 7.61842686 0 0 Z " fill="#B93937" transform="translate(118,35)"/>
<path d="M0 0 C1 3 1 3 0 7 C-5.94 7.495 -5.94 7.495 -12 8 C-9.00178398 6.00118932 -5.99432114 4.52480991 -2.7421875 3 C-0.82650826 2.11392791 -0.82650826 2.11392791 0 0 Z " fill="#D84A39" transform="translate(59,15)"/>
<path d="M0 0 C1.8125 0.125 1.8125 0.125 4 1 C7.146948 5.88319518 7.146948 5.88319518 6.6875 9.375 C6.460625 9.91125 6.23375 10.4475 6 11 C4.68 9.68 3.36 8.36 2 7 C2.66 7 3.32 7 4 7 C3.525625 6.21625 3.05125 5.4325 2.5625 4.625 C1.66101977 3.11051322 0.78820515 1.5764103 0 0 Z " fill="#F56565" transform="translate(74,35)"/>
<path d="M0 0 C1.32 0.99 2.64 1.98 4 3 C3.34 4.98 2.68 6.96 2 9 C0.35 7.35 -1.3 5.7 -3 4 C-2.01 2.68 -1.02 1.36 0 0 Z " fill="#DD4444" transform="translate(81,11)"/>
<path d="M0 0 C2.375 0.25 2.375 0.25 5 1 C6.3125 3.0625 6.3125 3.0625 7 5 C6.443125 4.814375 5.88625 4.62875 5.3125 4.4375 C2.600867 3.92448835 0.65628961 4.3359276 -2 5 C-2.33 4.34 -2.66 3.68 -3 3 C-2.01 2.34 -1.02 1.68 0 1 C0 0.67 0 0.34 0 0 Z " fill="#F27676" transform="translate(78,9)"/>
<path d="M0 0 C4.72463088 0.46319911 8.17057052 1.09891706 12 4 C12 4.66 12 5.32 12 6 C7.04305957 5.29186565 3.54556225 3.54556225 0 0 Z " fill="#F36E6C" transform="translate(47,83)"/>
<path d="M0 0 C0.33 0.66 0.66 1.32 1 2 C-2.25 8.5 -2.25 8.5 -6 11 C-5.55530671 5.96014269 -3.28656638 3.62365012 0 0 Z " fill="#B5372C" transform="translate(29,36)"/>
<path d="M0 0 C1.45922693 0.11409593 2.91740598 0.24165544 4.375 0.375 C5.59316406 0.47941406 5.59316406 0.47941406 6.8359375 0.5859375 C9 1 9 1 11 3 C6.71 3 2.42 3 -2 3 C-1.34 2.01 -0.68 1.02 0 0 Z " fill="#E93E35" transform="translate(41,28)"/>
<path d="M0 0 C0.61488281 0.08378906 1.22976562 0.16757813 1.86328125 0.25390625 C3.07564453 0.40666016 3.07564453 0.40666016 4.3125 0.5625 C5.11300781 0.66691406 5.91351563 0.77132812 6.73828125 0.87890625 C9.16817116 1.14755178 9.16817116 1.14755178 12 0 C12.33 0.66 12.66 1.32 13 2 C15.01669827 3.13350534 15.01669827 3.13350534 17 4 C11.08507728 3.54775239 5.64800112 2.8417395 0 1 C0 0.67 0 0.34 0 0 Z " fill="#785545" transform="translate(59,154)"/>
<path d="M0 0 C-0.33 1.65 -0.66 3.3 -1 5 C-1.66 5 -2.32 5 -3 5 C-3 4.01 -3 3.02 -3 2 C-5.64 2.33 -8.28 2.66 -11 3 C-7.11595442 0.41063628 -4.5725325 -0.12358196 0 0 Z " fill="#B03130" transform="translate(109,137)"/>
<path d="M0 0 C0.66 0 1.32 0 2 0 C2.86646667 1.43011973 3.71781829 2.86940619 4.5625 4.3125 C5.03816406 5.11300781 5.51382813 5.91351563 6.00390625 6.73828125 C7 9 7 9 6 12 C5.67 11.01 5.34 10.02 5 9 C4.34 9 3.68 9 3 9 C2.01 6.03 1.02 3.06 0 0 Z " fill="#E63C3C" transform="translate(89,47)"/>
<path d="M0 0 C2.31 0 4.62 0 7 0 C5.71937515 1.7074998 4.38232443 3.37373596 3 5 C2.34 5 1.68 5 1 5 C1 4.34 1 3.68 1 3 C0.34 3 -0.32 3 -1 3 C-0.67 2.01 -0.34 1.02 0 0 Z " fill="#C84847" transform="translate(93,26)"/>
<path d="M0 0 C0.33 0 0.66 0 1 0 C1.33 2.97 1.66 5.94 2 9 C-0.31 8.67 -2.62 8.34 -5 8 C-5 7.34 -5 6.68 -5 6 C-4.01 6 -3.02 6 -2 6 C-1.34 4.02 -0.68 2.04 0 0 Z " fill="#A1221B" transform="translate(84,16)"/>
<path d="M0 0 C0.33 0 0.66 0 1 0 C1.44041451 5.28497409 1.44041451 5.28497409 1 8 C-1.5 10.5 -1.5 10.5 -4 12 C-3.67 10.02 -3.34 8.04 -3 6 C-2.34 6 -1.68 6 -1 6 C-0.67 4.02 -0.34 2.04 0 0 Z " fill="#69331C" transform="translate(128,134)"/>
<path d="M0 0 C4.10899581 1.12795963 8.07561214 2.33510818 12 4 C11.34 4.66 10.68 5.32 10 6 C6.04 4.68 2.08 3.36 -2 2 C-1.34 1.34 -0.68 0.68 0 0 Z " fill="#BC2F25" transform="translate(46,80)"/>
<path d="M0 0 C5.03213609 2.37628649 6.62170542 5.15532587 9 10 C9 10.66 9 11.32 9 12 C8.34 12 7.68 12 7 12 C5.52734375 10.13671875 5.52734375 10.13671875 3.9375 7.6875 C3.41027344 6.88699219 2.88304688 6.08648437 2.33984375 5.26171875 C1 3 1 3 0 0 Z " fill="#E84D4C" transform="translate(87,37)"/>
<path d="M0 0 C3.10190545 4.65285818 4.33846504 9.41532676 4 15 C1.1496974 11.79054398 0.56548301 9.50011452 0.3125 5.25 C0.24675781 4.26515625 0.18101562 3.2803125 0.11328125 2.265625 C0.07589844 1.51796875 0.03851563 0.7703125 0 0 Z " fill="#B14B48" transform="translate(131,108)"/>
<path d="M0 0 C0.66 0 1.32 0 2 0 C2.2226746 1.43534841 2.42761906 2.87345525 2.625 4.3125 C2.74101563 5.11300781 2.85703125 5.91351563 2.9765625 6.73828125 C3 9 3 9 1 12 C0.67 8.04 0.34 4.08 0 0 Z " fill="#A01A10" transform="translate(80,53)"/>
<path d="M0 0 C0.33 0 0.66 0 1 0 C1 1.98 1 3.96 1 6 C0.34 6 -0.32 6 -1 6 C-1.66 7.32 -2.32 8.64 -3 10 C-3.99 10 -4.98 10 -6 10 C-5.65066406 9.52949219 -5.30132812 9.05898437 -4.94140625 8.57421875 C-4.48636719 7.95160156 -4.03132813 7.32898438 -3.5625 6.6875 C-2.88380859 5.76517578 -2.88380859 5.76517578 -2.19140625 4.82421875 C-0.82663692 2.90322899 -0.82663692 2.90322899 0 0 Z " fill="#91573C" transform="translate(126,134)"/>
<path d="M0 0 C3.3 0 6.6 0 10 0 C8.35 1.32 6.7 2.64 5 4 C3.31503702 3.03114628 1.64821244 2.03013277 0 1 C0 0.67 0 0.34 0 0 Z " fill="#F8302B" transform="translate(87,24)"/>
<path d="M0 0 C-1 3 -1 3 -3.8125 4.5625 C-4.864375 5.036875 -5.91625 5.51125 -7 6 C-7.78375 6.391875 -8.5675 6.78375 -9.375 7.1875 C-9.91125 7.455625 -10.4475 7.72375 -11 8 C-8.21659292 4.18570141 -5.12174212 0 0 0 Z " fill="#E93D37" transform="translate(39,34)"/>
<path d="M0 0 C0.66 0 1.32 0 2 0 C2 0.99 2 1.98 2 3 C2.66 3 3.32 3 4 3 C4 5.31 4 7.62 4 10 C1.16625119 6.79663178 0.4794463 4.21912747 0 0 Z " fill="#CB4A49" transform="translate(75,94)"/>
<path d="M0 0 C2.97 0.495 2.97 0.495 6 1 C6.33 2.98 6.66 4.96 7 7 C5 5.625 5 5.625 3 4 C3 3.34 3 2.68 3 2 C2.01 1.67 1.02 1.34 0 1 C0 0.67 0 0.34 0 0 Z " fill="#EF5351" transform="translate(56,90)"/>
<path d="M0 0 C0.33 0 0.66 0 1 0 C1 2.31 1 4.62 1 7 C0.01 7 -0.98 7 -2 7 C-2.125 4.625 -2.125 4.625 -2 2 C-1.34 1.34 -0.68 0.68 0 0 Z " fill="#400F0F" transform="translate(62,13)"/>
<path d="M0 0 C2.475 0.99 2.475 0.99 5 2 C5 2.99 5 3.98 5 5 C4.01 5.33 3.02 5.66 2 6 C0 3 0 3 0 0 Z " fill="#8A2727" transform="translate(86,129)"/>
<path d="M0 0 C0.66 0 1.32 0 2 0 C2.625 2.8125 2.625 2.8125 3 6 C2.34 6.99 1.68 7.98 1 9 C0.67 6.03 0.34 3.06 0 0 Z " fill="#591413" transform="translate(89,50)"/>
<path d="" fill="#DA231D" transform="translate(0,0)"/>
<path d="" fill="#E32F28" transform="translate(0,0)"/>
<path d="" fill="#D21B14" transform="translate(0,0)"/>
<path d="" fill="#FFFFFF" transform="translate(0,0)"/>
</svg>
